<svg width="16" height="16" viewBox="0 0 16 16" fill="none" xmlns="http://www.w3.org/2000/svg">
<path d="M0.974621 5.06131L4.06073 1.9752L7.04488 4.95935L5.92193 6.0823L5.69202 6.31221L5.80892 6.61561L6.27549 6.43585C5.80892 6.61561 5.80894 6.61568 5.80897 6.61576L5.80904 6.61593L5.8092 6.61636L5.80966 6.61755L5.81109 6.62122L5.81598 6.63363L5.83367 6.67759C5.84892 6.71497 5.87104 6.76804 5.89949 6.83332C5.95625 6.96358 6.03885 7.14392 6.14297 7.34597C6.34595 7.73983 6.65118 8.2569 7.02931 8.63504C7.40744 9.01317 7.92452 9.31839 8.31838 9.52137C8.52042 9.6255 8.70077 9.7081 8.83103 9.76486C8.8963 9.79331 8.94938 9.81542 8.98676 9.83067L9.03072 9.84837L9.04313 9.85325L9.0468 9.85468L9.04799 9.85514L9.04842 9.85531L9.04859 9.85538C9.04866 9.8554 9.04873 9.85543 9.22849 9.38886L9.04873 9.85543L9.35214 9.97233L9.58205 9.74242L10.705 8.61947L13.6892 11.6036L10.6078 14.685C10.5039 14.6314 10.3773 14.5655 10.2318 14.4884C9.79973 14.2595 9.2026 13.9334 8.54293 13.5445C7.21212 12.7599 5.66908 11.7445 4.69759 10.773C3.72754 9.80293 2.7608 8.30968 2.02589 7.02952C1.66157 6.39488 1.35986 5.8227 1.14936 5.40937C1.08114 5.27544 1.02257 5.15831 0.974621 5.06131Z" stroke="white"/>
<path d="M12.9197 7.17432V2.7448H8.49016" stroke="white"/>
</svg>
