<svg width="27" height="24" viewBox="0 0 27 24" fill="none" xmlns="http://www.w3.org/2000/svg">
<path d="M18.759 7.65573C16.2522 7.78617 14.0733 8.54641 12.3032 10.2632C10.5144 11.9973 9.69822 14.1227 9.92182 16.7575C8.94171 16.6358 8.04979 16.5028 7.15291 16.4271C6.84235 16.401 6.47465 16.4382 6.21254 16.5861C5.34175 17.078 4.50573 17.6333 3.51568 18.2519C3.69704 17.4295 3.81505 16.7103 4.02375 16.0184C4.17654 15.5091 4.10573 15.2271 3.63742 14.8954C0.628752 12.7712 -0.639558 9.59236 0.3095 6.3191C1.18651 3.2918 3.34301 1.45456 6.27341 0.498043C10.2734 -0.808775 14.7677 0.52413 17.2 3.69925C18.077 4.84582 18.6161 6.13401 18.759 7.65573ZM7.22247 6.63587C7.24607 6.03712 6.72682 5.49799 6.11068 5.47936C5.47963 5.46072 4.96163 5.94271 4.94299 6.56506C4.92436 7.19487 5.40634 7.70045 6.04112 7.7166C6.67092 7.73275 7.19887 7.24953 7.22247 6.63587ZM13.241 5.47936C12.6224 5.49054 12.1007 6.01724 12.1106 6.61848C12.1218 7.24083 12.6348 7.72902 13.2709 7.72157C13.9081 7.71412 14.3926 7.22095 14.3864 6.58494C14.3814 5.96134 13.8708 5.46818 13.241 5.47936Z" fill="white"/>
<path d="M24.3901 23.2816C23.5963 22.9288 22.8683 22.3983 22.0932 22.3176C21.3205 22.2369 20.5094 22.6828 19.7019 22.7648C17.2411 23.017 15.0361 22.3313 13.2188 20.6493C9.76165 17.4518 10.2561 12.5488 14.2548 9.92766C17.81 7.59849 23.0236 8.37488 25.5292 11.6071C27.7167 14.427 27.4596 18.1698 24.7888 20.5387C24.0162 21.2244 23.7379 21.7884 24.2335 22.6927C24.3267 22.8604 24.3366 23.0716 24.3901 23.2816ZM15.3554 14.5351C15.861 14.5351 16.2771 14.14 16.2957 13.6407C16.3156 13.1127 15.8908 12.6692 15.3616 12.6668C14.8374 12.6643 14.3989 13.114 14.4175 13.6345C14.4349 14.1326 14.8535 14.5338 15.3554 14.5351ZM21.1789 12.6692C20.6882 12.6655 20.2721 13.0668 20.2522 13.5624C20.2311 14.0916 20.6423 14.5276 21.1665 14.5289C21.6733 14.5301 22.0746 14.1475 22.092 13.6432C22.1131 13.1115 21.7007 12.673 21.1789 12.6692Z" fill="white"/>
</svg>
