<svg width="100" height="110" viewBox="0 0 100 110" fill="none" xmlns="http://www.w3.org/2000/svg">
<path d="M36.5004 11.2572L35.0673 22.8715H23V76.6452H77V22.7961H64.9327L63.4996 11.257C63.4544 10.9713 63.2492 10.7367 62.9719 10.6535L57.3908 9.52247C52.413 8.51871 47.2848 8.51871 42.307 9.52247L37.1029 10.5783C36.7731 10.6446 36.5269 10.9213 36.5001 11.257L36.5004 11.2572ZM37.7072 13.5199L47.9637 30.0367L35.1426 34.1849L37.7072 13.5199ZM75.4921 24.3046V75.137H24.5089V24.3046H34.8417L33.4839 35.1651C33.4586 35.4286 33.5728 35.6864 33.7859 35.8437L34.2383 35.9947H34.4645L49.1712 31.2432L65.5371 35.9947H65.7634L66.2158 35.8437C66.401 35.6701 66.4857 35.4149 66.442 35.1651L65.16 24.3804L75.4921 24.3046ZM64.8579 34.2602L50.3775 30.0368L62.218 13.3692L64.8579 34.2602ZM42.6093 11.0311C47.4124 10.0579 52.3618 10.0579 57.1652 11.0311L61.5395 11.8607L49.1708 29.1317L38.4613 11.8607L42.6093 11.0311Z" fill="#006525" stroke="#006525" stroke-width="0.2"/>
<path d="M56.0339 57.0366L62.9725 60.4303L69.911 57.0366V44.3665H56.0339V57.0366ZM57.5422 45.8747H68.4027V56.1317L62.9725 58.7716L57.5423 56.1317L57.5422 45.8747Z" fill="#060808" stroke="#060808" stroke-width="0.2"/>
<path d="M49.2462 59.0729H50.7545V65.9282H49.2462V59.0729Z" fill="#060808" stroke="#060808" stroke-width="0.2"/>
<path d="M49.2462 42.0282H50.7545V48.1444H49.2462V42.0282Z" fill="#060808" stroke="#060808" stroke-width="0.2"/>
</svg>
