<svg width="100" height="110" viewBox="0 0 100 110" fill="none" xmlns="http://www.w3.org/2000/svg">
<path d="M73.8385 45.2392H51.2425L43.1118 32.9483C43.0175 32.7591 42.8282 32.7591 42.6389 32.7591C42.4497 32.7591 42.261 32.9483 42.261 33.0426L30.6324 69.631L19.098 45.5224C19.0037 45.3331 18.8145 45.2388 18.7202 45.2388H6.99658V46.1845H18.3416L30.254 71.144C30.3483 71.3333 30.5375 71.4276 30.7268 71.4276C30.9161 71.4276 31.1047 71.2383 31.1047 71.0497L42.8283 34.2723L50.5812 45.9958C50.6755 46.0901 50.8648 46.1851 50.9591 46.1851H73.8386L73.8385 45.2392Z" fill="#006525" stroke="#006525" stroke-width="0.7"/>
<path d="M56.3479 29.9231L57.01 30.5852C65.2352 22.3601 78.6605 22.3601 86.8858 30.5852C95.1109 38.8104 95.1109 52.2357 86.8858 60.461C78.6607 68.6861 65.2353 68.6861 57.01 60.461L56.3479 61.1231C64.9515 69.7268 78.9438 69.7268 87.5473 61.1231C96.1509 52.5195 96.1509 38.5272 87.5473 29.9237C78.9436 21.3201 64.9514 21.3201 56.3479 29.9231V29.9231Z" fill="#006525" stroke="#006525" stroke-width="0.7"/>
<path d="M64.7623 52.7081L64.1002 53.3702C68.4495 57.7196 75.4452 57.7196 79.7946 53.3702C84.1439 49.0209 84.1439 42.0252 79.7946 37.6758C75.4452 33.3265 68.4495 33.3265 64.1002 37.6758L64.7623 38.3379C68.7331 34.3671 75.1624 34.3671 79.1331 38.3379C83.1039 42.3088 83.1039 48.7381 79.1331 52.7087C75.1622 56.6789 68.7329 56.6789 64.7623 52.7081V52.7081Z" fill="#060808" stroke="#060808" stroke-width="0.7"/>
</svg>
