<svg width="115" height="105" viewBox="0 0 115 105" fill="none" xmlns="http://www.w3.org/2000/svg">
<path fill-rule="evenodd" clip-rule="evenodd" d="M83.692 1.56484C83.0143 4.40724 82.9727 7.39877 83.5655 10.5394C83.777 9.90274 84.115 9.11778 84.5804 8.18461C85.1723 6.9965 85.7855 5.9567 86.4199 5.06601C86.8853 4.3876 87.4551 4.28017 88.132 4.74813C88.808 5.25694 88.9132 5.85188 88.4487 6.53027C87.771 7.50704 87.2224 8.43939 86.7995 9.33085C85.8262 11.2826 85.2352 13.3621 85.0237 15.5687C86.3341 18.9208 88.3214 21.7641 90.9854 24.0978L90.8588 23.7159C89.4219 19.6419 89.3149 15.5688 90.5421 11.4948C90.6686 11.1547 90.8589 10.922 91.1128 10.7951C91.4517 10.6255 91.7684 10.5828 92.0639 10.6681C92.4028 10.7951 92.6559 11.0082 92.8249 11.3048C92.9939 11.6013 93.0363 11.9192 92.9514 12.2593C91.9365 15.4 91.9153 18.6243 92.8877 21.9338C92.9717 19.3881 93.6274 16.82 94.8537 14.2325C95.4881 13.0026 96.0172 12.0898 96.4393 11.4958C97.3276 10.2224 98.3637 9.0557 99.5467 7.99548C100.349 7.31707 101.132 6.74434 101.893 6.27727C102.189 6.10767 102.505 6.06504 102.844 6.15029C103.225 6.23464 103.5 6.42555 103.669 6.72302C104.049 7.48668 103.901 8.05941 103.225 8.44124C102.59 8.78133 101.893 9.26882 101.132 9.9055C100.076 10.9657 99.2078 11.9638 98.5319 12.897C98.0249 13.5337 97.5586 14.3391 97.1366 15.3159C95.1918 19.3472 94.8538 23.4844 96.1217 27.728L98.0877 28.6826H98.1514C100.308 29.6594 102.528 30.2525 104.81 30.4647C107.812 30.7196 110.667 30.4434 113.373 29.6372C113.711 29.5528 114.049 29.5954 114.387 29.7641C114.683 29.9337 114.873 30.1673 114.958 30.4638C115.042 30.8039 115 31.1218 114.832 31.4184C114.663 31.7585 114.41 31.9707 114.071 32.0551C110.858 32.9466 107.707 33.2441 104.621 32.9466C102.802 32.8196 100.899 32.3952 98.9132 31.6733V33.4554L99.928 33.7102L112.739 42.0483C113.33 42.4302 113.5 42.9399 113.246 43.5756C111.597 47.0548 109.314 49.177 106.397 49.9406H105.953C98.5541 49.3039 91.027 51.9137 83.3745 57.7697C78.0887 63.1163 73.7975 67.7629 70.4997 71.709C68.5134 83.2081 70.0777 93.6685 75.1928 103.088C75.4042 103.512 75.4042 103.937 75.1928 104.362C74.8972 104.785 74.5168 104.998 74.0514 104.998H70.1194C69.654 104.998 69.2735 104.786 68.978 104.362C65.2565 98.1236 62.1916 90.6548 59.7813 81.9571C56.2714 88.8308 54.6231 96.0659 54.8344 103.662C54.9185 104.043 54.8132 104.342 54.5176 104.553C54.2221 104.85 53.9257 104.999 53.6293 104.999H50.014C49.2964 104.999 48.8939 104.617 48.8089 103.853C47.7941 94.433 48.7452 83.6549 51.6634 71.5194C44.5603 72.1135 38.0491 70.8828 32.1298 67.8282C30.5655 73.0477 27.627 77.2486 23.3136 80.431C21.6228 88.1547 23.08 95.6853 27.6898 103.026C27.9853 103.493 28.0065 103.918 27.7535 104.3C27.542 104.767 27.1828 104.999 26.6749 104.999H22.489C21.982 104.999 21.6211 104.787 21.4105 104.363C17.4785 98.0394 15.0682 91.9293 14.1799 86.0313L13.7994 83.0397C13.7145 82.5309 13.8835 82.1482 14.3064 81.8943L14.3701 81.3215C10.6921 87.6446 8.97899 95.0912 9.23291 103.663C9.31696 104.003 9.21167 104.299 8.91616 104.554C8.62064 104.851 8.30389 105 7.96501 105H4.53998C4.2011 105 3.90558 104.873 3.65164 104.618C3.3977 104.363 3.27117 104.067 3.27117 103.727L2.95442 80.7492C2.95442 80.3256 3.12342 79.9855 3.46142 79.7307C7.81649 76.3359 10.1203 71.9016 10.3744 66.4279L9.74004 65.3455C7.41471 61.823 5.80809 58.5348 4.91972 55.4803C4.66578 54.6314 4.45431 53.6546 4.28532 52.5526C2.97404 54.8863 2.38301 57.4534 2.50954 60.254C2.50954 60.5941 2.4246 60.912 2.2556 61.2086C2.00166 61.4208 1.70525 61.5264 1.36726 61.5264C1.02838 61.5682 0.71163 61.5051 0.416105 61.3355C0.162167 61.0807 0.0356408 60.7841 0.0356408 60.444C-0.259884 55.8194 1.28232 51.5963 4.66569 47.778C5.17268 45.741 6.06103 44.0645 7.32988 42.7494C9.1906 40.6707 12.1078 39.0794 16.0824 37.9757H16.2726C28.4916 36.3632 44.5816 36.8302 64.5369 39.3761C71.2597 40.0127 78.6584 39.3121 86.7347 37.276C84.9156 34.2206 83.9645 31.4198 83.8803 28.8741C83.7953 28.4079 84.0068 28.0252 84.5147 27.7286C84.8952 27.4737 85.3172 27.4959 85.7835 27.7925C88.9546 29.7442 92.485 31.3569 96.3755 32.6301V30.657L94.536 29.7025C94.282 29.6172 94.0706 29.4902 93.9016 29.3206C88.6158 26.3077 84.8324 21.9584 82.5488 16.2729V16.209L82.232 15.0635C80.4978 10.3537 80.181 5.66522 81.2809 0.997213C81.3658 0.65712 81.556 0.382746 81.8515 0.169634C82.1055 3.29655e-05 82.401 -0.0425895 82.7399 0.0426554C83.0788 0.1279 83.3309 0.318803 83.5008 0.615387C83.7141 0.904856 83.7778 1.22365 83.6928 1.56374L83.692 1.56484ZM97.264 35.5514L97.2003 35.4875C93.2683 34.342 89.7794 32.9194 86.7358 31.2225C87.2428 33.1316 88.2577 35.1685 89.7803 37.3326C90.0342 37.6727 90.0758 38.0749 89.9068 38.542C89.7803 38.9239 89.5051 39.1565 89.0822 39.2417C79.9494 41.7441 71.6828 42.6152 64.2841 41.8514C44.5398 39.3909 28.6612 38.9033 16.654 40.3871C13.144 41.4473 10.6506 42.7837 9.17037 44.3973C8.11392 45.501 7.3946 46.9014 7.01413 48.5981C6.84514 49.5749 6.76019 50.5925 6.76019 51.6535C6.76019 52.4172 6.95042 53.4357 7.33088 54.7089C8.00687 57.2974 9.48712 60.3956 11.7709 64.0015L12.722 65.5928C13.0176 65.9746 13.4617 66.7169 14.0537 67.8207C15.956 71.4703 16.9292 74.4823 16.9709 76.8594C17.0124 76.8594 17.0124 76.8807 16.9709 76.9233L17.0346 77.2412L16.6541 85.7061C17.4566 91.0527 19.6349 96.6325 23.1866 102.446H24.4554C20.2695 94.9357 19.1069 87.2539 20.9676 79.405C21.0092 79.1502 21.1791 78.9176 21.4746 78.7053C26.041 75.4376 28.8955 71.1097 30.0369 65.7206C30.3324 64.6169 30.5438 63.2601 30.6713 61.6466C30.6713 61.35 30.7978 61.0951 31.0517 60.8829C31.3472 60.6281 31.664 60.5215 32.0029 60.565C32.3418 60.565 32.6373 60.692 32.8912 60.9469C33.1027 61.2017 33.1867 61.4992 33.1452 61.8384C33.0602 63.1535 32.9116 64.3212 32.701 65.3387C38.9583 68.6055 45.7864 69.7946 53.1866 68.903C54.8359 68.6064 56.4214 68.2886 57.9433 67.9485C58.2822 67.8641 58.6193 67.9272 58.9582 68.1394C59.2121 68.3516 59.3802 68.6269 59.4651 68.967C60.0562 72.5313 60.6906 75.6497 61.3674 78.3234C63.6502 87.5742 66.8 95.6147 70.8171 102.447H72.086C67.3506 92.8573 66.0393 82.3545 68.154 70.9401C68.154 70.7279 68.238 70.537 68.4079 70.3674C71.748 66.3361 76.1667 61.5196 81.6632 55.9192L81.7897 55.8552C89.9918 49.6173 98.0462 46.8165 105.954 47.4533C107.814 46.9445 109.315 45.6294 110.456 43.5072L99.1035 36.0598L97.264 35.5514ZM54.3905 71.1951C51.4733 82.9482 50.4169 93.3667 51.2194 102.447H52.298C52.298 94.0032 54.4746 85.9823 58.8305 78.3875C58.365 76.5201 57.8156 73.9316 57.1812 70.6223L54.3905 71.1951ZM12.405 70.1784C11.475 74.5916 9.19218 78.3042 5.55582 81.317L5.74605 102.449H6.76092C6.63439 92.3491 9.21445 83.6941 14.4984 76.4799C14.371 74.7803 13.6738 72.6803 12.405 70.1779L12.405 70.1784Z" fill="white"/>
</svg>
