<svg width="122" height="85" viewBox="0 0 122 85" fill="none" xmlns="http://www.w3.org/2000/svg">
<path d="M45.552 41.152C43.446 50.434 36.114 55.972 25.194 55.972C12.168 55.972 3.432 45.598 3.432 29.686C3.432 13.618 12.246 3.47803 25.272 3.47803C34.866 3.47803 43.056 8.15803 45.318 18.298H48.672C46.176 6.83204 37.44 0.436035 25.35 0.436035C9.048 0.436035 0 12.916 0 29.686C0 46.456 8.97 59.014 25.194 59.014C37.518 59.014 46.41 52.54 48.906 41.152H45.552Z" fill="white"/>
<path d="M57.1728 29.686C57.1728 12.916 66.7668 3.47803 79.4808 3.47803C92.2728 3.47803 101.867 12.916 101.867 29.686C101.867 46.456 92.2728 55.972 79.4808 55.972C66.7668 55.972 57.1728 46.456 57.1728 29.686ZM105.299 29.686C105.299 12.136 95.2368 0.436035 79.4808 0.436035C63.4908 0.436035 53.7408 12.526 53.7408 29.686C53.7408 46.846 63.4908 59.014 79.4808 59.014C95.2368 59.014 105.299 47.236 105.299 29.686Z" fill="white"/>
<path d="M118.291 56.336C120.531 54.352 121.555 52.72 121.555 49.84C121.555 45.744 118.355 42.48 114.163 42.48C109.907 42.48 106.675 45.616 106.675 49.808H109.043C109.043 47.088 111.219 44.752 114.131 44.752C116.979 44.752 119.155 46.992 119.155 49.808C119.155 51.44 118.739 52.816 116.947 54.416L106.547 63.824L106.515 66H121.555V63.728H110.099L118.291 56.336Z" fill="white"/>
<path d="M85.61 77.4301L79.54 83.5001L73.47 77.4301" stroke="white" stroke-width="2" stroke-miterlimit="10" stroke-linecap="square"/>
<path d="M79.54 58L79.54 83" stroke="white" stroke-width="2" stroke-miterlimit="10" stroke-linecap="round" stroke-linejoin="round"/>
<path d="M32.61 77.4301L26.54 83.5001L20.47 77.4301" stroke="white" stroke-width="2" stroke-miterlimit="10" stroke-linecap="square"/>
<path d="M26.54 58L26.54 83" stroke="white" stroke-width="2" stroke-miterlimit="10" stroke-linecap="round" stroke-linejoin="round"/>
</svg>
