<svg width="44" height="44" viewBox="0 0 44 44" fill="none" xmlns="http://www.w3.org/2000/svg">
<path d="M7.5 14.8799C5.91295 17.505 5 20.5806 5 23.8688C5 33.5015 12.835 41.3104 22.5 41.3104C32.165 41.3104 40 33.5015 40 23.8688C40 14.2361 32.165 6.42718 22.5 6.42718L26.25 2.6897" stroke="white" stroke-width="1.5"/>
<path d="M15.841 26.5112L22.5 11.9422L29.159 26.5112C30.1428 28.6636 28.5697 31.1122 26.2031 31.1122H18.7968C16.4302 31.1122 14.8572 28.6636 15.841 26.5112Z" stroke="white" stroke-width="1.5"/>
<path d="M22.5 36.6898L22.5 28.2415M22.5 21.0002L22.5 25.2243M22.5 28.2415L25.5172 25.8278M22.5 28.2415L22.5 25.2243M22.5 25.2243L20.0862 23.414" stroke="white" stroke-width="1.5"/>
</svg>
