<svg width="231" height="212" viewBox="0 0 231 212" fill="none" xmlns="http://www.w3.org/2000/svg">
<path d="M60.6429 126.689C47.5384 148.372 40 173.776 40 200.935C40 280.5 104.695 345 184.5 345C264.305 345 329 280.5 329 200.935C329 121.371 264.305 56.871 184.5 56.871L215.464 26M184.5 306.834V237.053M184.5 237.053L209.414 217.116M184.5 237.053V212.131M184.5 212.131V177.241M184.5 212.131L164.569 197.178M184.5 87.5222L245.117 220.186C255.115 242.067 239.128 266.96 215.077 266.96H153.923C129.871 266.96 113.885 242.067 123.883 220.186L184.5 87.5222Z" stroke="#005C22" stroke-width="16"/>
</svg>
