<svg width="100" height="110" viewBox="0 0 100 110" fill="none" xmlns="http://www.w3.org/2000/svg">
<g clip-path="url(#clip0_1011_2816)">
<path d="M36.2651 40.5922C26.483 40.5922 18.5244 48.5502 18.5244 58.3328C18.5244 68.1154 26.4825 76.0734 36.2651 76.0734C46.0476 76.0734 54.0057 68.1154 54.0057 58.3328C54.0053 48.5507 46.0473 40.5922 36.2651 40.5922ZM36.2651 73.9248C27.6541 73.9248 20.6741 66.9434 20.6741 58.3339C20.6741 49.7232 27.6544 42.7429 36.2651 42.7429C44.8748 42.7429 51.8571 49.7239 51.8571 58.3339C51.8567 66.9436 44.8748 73.9248 36.2651 73.9248Z" fill="#006525"/>
<path d="M63.1267 63.5112V53.156L56.1823 51.3216C55.9271 50.5977 55.6361 49.8907 55.3067 49.206L58.9198 42.9999L51.5978 35.6784L45.353 39.315C44.6835 38.9968 43.996 38.7169 43.2906 38.4704L41.441 31.4712H31.088L29.2243 38.5257C28.5631 38.7635 27.9147 39.0323 27.2852 39.3336L21.0058 35.6784L13.6846 43L17.3399 49.2794C17.0303 49.9278 16.7553 50.5957 16.5113 51.2783L9.40205 53.156V63.509L16.5109 65.3871C16.7458 66.0446 17.0109 66.6876 17.3061 67.3147L13.6088 73.6655L20.9304 80.9875L27.2428 77.3133C27.8854 77.6213 28.5466 77.8962 29.2239 78.1403L31.0875 85.1943H41.4405L43.2886 78.1956C44.0079 77.9429 44.7115 77.6572 45.3926 77.3315L51.6729 80.9876L58.9945 73.6656L55.3397 67.3862C55.6567 66.7241 55.9353 66.0411 56.1815 65.3424L63.1267 63.5112ZM54.1549 64.6287C53.9282 65.2705 53.6747 65.8864 53.4014 66.4586C53.0947 67.1 53.1248 67.8523 53.4826 68.4669L56.3047 73.3159L51.3238 78.2968L46.4739 75.4735C46.1404 75.2798 45.7674 75.1816 45.3927 75.1816C45.0757 75.1816 44.7587 75.2513 44.4643 75.3927C43.8814 75.6722 43.2458 75.9327 42.5771 76.1669C41.9044 76.4027 41.3932 76.9571 41.211 77.646L39.7851 83.0449H32.7427L31.302 77.5911C31.1215 76.9084 30.6169 76.3577 29.9524 76.1178C29.3373 75.8964 28.7384 75.6466 28.172 75.375C27.8777 75.2336 27.5602 75.1639 27.2432 75.1639C26.8689 75.1639 26.4955 75.2616 26.1624 75.4558L21.2804 78.2972L16.2995 73.3163L19.1644 68.3964C19.5201 67.7855 19.5527 67.039 19.2514 66.3987C18.9863 65.8369 18.746 65.2532 18.5357 64.6649C18.2979 63.9975 17.7455 63.49 17.0604 63.3095L11.551 61.8547V54.811L17.06 53.3563C17.7443 53.1758 18.2963 52.6687 18.5346 52.0017C18.7584 51.3747 19.0091 50.7704 19.2787 50.2053C19.5849 49.5639 19.5544 48.8128 19.1966 48.1985L16.3741 43.3495L21.355 38.3686L26.204 41.1911C26.5371 41.3849 26.9106 41.483 27.2849 41.483C27.6015 41.483 27.9185 41.4133 28.212 41.2723C28.7631 41.0085 29.3488 40.7653 29.9515 40.5476C30.616 40.3081 31.1206 39.7574 31.3011 39.0743L32.7418 33.6201H39.7851L41.2115 39.019C41.3937 39.7087 41.9061 40.2627 42.5797 40.4986C43.2215 40.7232 43.8443 40.978 44.4293 41.2562C44.7215 41.3948 45.0369 41.464 45.351 41.464C45.7253 41.464 46.0992 41.3663 46.4323 41.1722L51.2471 38.3691L56.228 43.35L53.4471 48.1256C53.0888 48.7419 53.0587 49.4954 53.3679 50.1381C53.6565 50.7391 53.9207 51.3781 54.1532 52.0372C54.3894 52.7083 54.9435 53.219 55.6311 53.4009L60.9776 54.8111V61.8556L55.6335 63.2646C54.9447 63.4464 54.3914 63.9572 54.1548 64.6287H54.1549Z" fill="#006525"/>
<path d="M70.6272 10.2815C63.8903 10.2815 58.4092 15.7622 58.4092 22.4995C58.4092 29.2367 63.8899 34.7174 70.6272 34.7174C77.3644 34.7174 82.8451 29.2367 82.8451 22.4995C82.8448 15.7626 77.3641 10.2815 70.6272 10.2815ZM70.6272 33.2377C64.6968 33.2377 59.8897 28.4296 59.8897 22.5002C59.8897 16.5701 64.697 11.7627 70.6272 11.7627C76.5567 11.7627 81.3654 16.5705 81.3654 22.5002C81.3651 28.4297 76.5567 33.2377 70.6272 33.2377Z" fill="#060808" stroke="#060808" stroke-width="0.5"/>
<path d="M89.1267 26.0658V18.9342L84.3441 17.6709C84.1683 17.1723 83.9679 16.6854 83.7411 16.2139L86.2294 11.9397L81.1868 6.89741L76.886 9.40197C76.4249 9.1828 75.9514 8.99003 75.4656 8.82026L74.1918 3.99995H67.0617L65.7782 8.85835C65.3228 9.02215 64.8763 9.20726 64.4428 9.41479L60.1181 6.89743L55.0761 11.9398L57.5934 16.2644C57.3802 16.711 57.1908 17.1709 57.0228 17.641L52.1267 18.9342V26.0643L57.0225 27.3577C57.1843 27.8105 57.3669 28.2534 57.5701 28.6853L55.0238 33.059L60.0662 38.1017L64.4135 35.5713C64.8561 35.7834 65.3114 35.9727 65.7779 36.1408L67.0614 40.9989H74.1915L75.4642 36.1789C75.9596 36.0049 76.4442 35.8081 76.9133 35.5838L81.2385 38.1018L86.2809 33.0591L83.7638 28.7345C83.9821 28.2786 84.174 27.8081 84.3435 27.3269L89.1267 26.0658ZM82.9479 26.8354C82.7917 27.2775 82.6171 27.7016 82.4289 28.0957C82.2177 28.5374 82.2384 29.0555 82.4848 29.4788L84.4284 32.8183L80.998 36.2486L77.658 34.3042C77.4283 34.1708 77.1714 34.1032 76.9133 34.1032C76.695 34.1032 76.4767 34.1512 76.274 34.2486C75.8725 34.441 75.4347 34.6205 74.9743 34.7817C74.5109 34.9441 74.1589 35.326 74.0334 35.8004L73.0514 39.5186H68.2013L67.2091 35.7626C67.0848 35.2924 66.7373 34.9131 66.2796 34.7479C65.856 34.5955 65.4435 34.4234 65.0535 34.2363C64.8508 34.139 64.6322 34.091 64.4138 34.091C64.1561 34.091 63.8988 34.1583 63.6695 34.292L60.3072 36.2489L56.8769 32.8186L58.85 29.4302C59.095 29.0095 59.1174 28.4954 58.9099 28.0544C58.7273 27.6675 58.5618 27.2655 58.417 26.8603C58.2532 26.4007 57.8728 26.0512 57.401 25.9269L53.6067 24.925V20.074L57.4007 19.0722C57.872 18.9478 58.2521 18.5986 58.4162 18.1393C58.5704 17.7074 58.743 17.2912 58.9287 16.9021C59.1396 16.4603 59.1186 15.9431 58.8722 15.52L56.9283 12.1805L60.3586 8.75018L63.6981 10.694C63.9275 10.8275 64.1847 10.895 64.4425 10.895C64.6605 10.895 64.8789 10.847 65.081 10.75C65.4606 10.5683 65.864 10.4008 66.279 10.2509C66.7367 10.0859 67.0842 9.70662 67.2085 9.2362L68.2007 5.4799H73.0514L74.0337 9.19812C74.1592 9.67308 74.5121 10.0546 74.976 10.2171C75.418 10.3718 75.847 10.5472 76.2498 10.7389C76.4511 10.8343 76.6683 10.882 76.8846 10.882C77.1424 10.882 77.3999 10.8147 77.6293 10.681L80.9452 8.75048L84.3756 12.1808L82.4604 15.4698C82.2136 15.8942 82.1929 16.4132 82.4058 16.8558C82.6046 17.2697 82.7866 17.7097 82.9467 18.1637C83.1093 18.6259 83.4909 18.9776 83.9645 19.1028L87.6466 20.074V24.9256L83.9661 25.896C83.4917 26.0212 83.1107 26.3729 82.9478 26.8354H82.9479Z" fill="#060808" stroke="#060808" stroke-width="0.5"/>
</g>
<defs>
<clipPath id="clip0_1011_2816">
<rect width="100" height="110" fill="white"/>
</clipPath>
</defs>
</svg>
