<svg width="100" height="110" viewBox="0 0 100 110" fill="none" xmlns="http://www.w3.org/2000/svg">
<rect x="12.9" y="43.8999" width="73.2" height="31.2" stroke="#006525" stroke-width="1.8"/>
<line x1="49.9" y1="43.9999" x2="49.9" y2="74.9999" stroke="#006525" stroke-width="1.8"/>
<line x1="86" y1="59.8999" x2="50" y2="59.8999" stroke="#006525" stroke-width="1.8"/>
<line x1="68.1" y1="42.9999" x2="68.1" y2="31.9999" stroke="#006525" stroke-width="1.8"/>
<line x1="71" y1="51.8999" x2="65" y2="51.8999" stroke="#060808" stroke-width="1.8"/>
<line x1="71" y1="67.8999" x2="65" y2="67.8999" stroke="#060808" stroke-width="1.8"/>
<line x1="20.1" y1="55.9999" x2="20.1" y2="49.9999" stroke="#060808" stroke-width="1.8"/>
<path d="M40 43.9999V37.9999H18V43.9999" stroke="#006525" stroke-width="1.8"/>
<path d="M37 37.9999V31.9999H21V37.9999" stroke="#006525" stroke-width="1.8"/>
<path d="M13 75.9999L13 79.9999L20 79.9999L20 75.9999" stroke="#006525" stroke-width="1.8"/>
<path d="M79 75.9999L79 79.9999L86 79.9999L86 75.9999" stroke="#006525" stroke-width="1.8"/>
<path d="M72.4978 22.0696L75.7229 31.0999H60.2771L63.5022 22.0696C64.1811 20.1688 65.9816 18.8999 68 18.8999C70.0184 18.8999 71.8189 20.1688 72.4978 22.0696Z" stroke="#006525" stroke-width="1.8"/>
</svg>
