<svg width="159" height="58" viewBox="0 0 159 58" fill="none" xmlns="http://www.w3.org/2000/svg">
<g clip-path="url(#clip0_1088_3895)">
<path d="M39.7276 16.8202C39.7276 27.178 32.4475 33.6404 19.8728 33.6404C7.28012 33.6404 0 27.178 0 16.8202C0 6.46239 7.28012 0 19.8549 0C32.4475 0 39.7276 6.46239 39.7276 16.8202ZM14.3635 16.8202C14.3635 20.2129 14.7212 25.8316 19.8549 25.8316C25.0064 25.8316 25.3463 20.2129 25.3463 16.8202C25.3463 13.4274 24.9885 7.80873 19.8549 7.80873C14.7212 7.80873 14.3635 13.4274 14.3635 16.8202ZM100.634 33.0839H114.282V0.556484H82.0489V10.9143C82.0489 16.9997 82.8181 24.8084 77.6129 24.8084C76.7543 24.8084 75.377 24.6289 74.6078 24.4853V32.8505C76.7543 33.3172 79.2943 33.6404 81.5302 33.6404C93.7472 33.6404 94.0155 25.4188 94.0155 14.9712V9.38842H100.634V33.0839ZM142.347 0.556484L133.94 13.3377H133.743V0.556484H120.095V33.0839H133.743V19.2795H133.94L142.705 33.0839H159L145.853 15.797L157.873 0.556484H142.347ZM51.9447 33.0839H65.5926V18.2563L51.9447 12.0811V33.0839ZM39.9244 0.556484V10.1783H51.9447H65.5926H77.6129V0.556484H39.9244ZM134.351 56.1869C135.872 56.1869 136.856 55.2714 136.963 53.979H135.764C135.693 54.7688 135.103 55.1817 134.405 55.1817C133.439 55.1817 132.849 54.5354 132.849 53.2968V53.2071C132.849 52.0402 133.475 51.3581 134.369 51.3581C135.067 51.3581 135.55 51.6633 135.657 52.4352H136.909C136.766 50.8734 135.586 50.3169 134.333 50.3169C132.759 50.3169 131.489 51.4478 131.489 53.243V53.3327C131.507 55.1278 132.741 56.1869 134.351 56.1869ZM129.343 56.0792H130.649V50.4246H129.343V52.7044H127.018V50.4246H125.712V56.0792H127.018V53.6738H129.343V56.0792ZM122.456 53.9969H123.225V56.0613H124.513V50.4067H122.26C120.936 50.4067 120.077 51.017 120.077 52.2018V52.2377C120.077 53.0993 120.578 53.5481 121.222 53.7456L119.684 56.0613H121.115L122.456 53.9969ZM123.225 51.376V53.0993H122.421C121.669 53.0993 121.383 52.8121 121.383 52.2556V52.2197C121.383 51.6633 121.723 51.3581 122.421 51.3581H123.225V51.376ZM116.446 55.1278V53.225H117.269C117.984 53.225 118.306 53.5302 118.306 54.1764V54.2123C118.306 54.8227 118.002 55.1278 117.269 55.1278H116.446ZM115.14 56.0792H117.43C118.736 56.0792 119.63 55.5048 119.63 54.2303V54.1944C119.63 52.9378 118.718 52.2736 117.466 52.2736H116.446V50.4246H115.14V56.0792ZM110.847 53.7994C110.919 53.0814 110.937 52.13 110.973 51.394H112.636V56.0792H113.924V50.4246H109.828C109.828 50.4246 109.792 52.6326 109.703 53.584C109.613 54.4636 109.47 55.0381 109.041 55.0381C108.862 55.0381 108.79 55.0022 108.79 55.0022V56.0972C108.79 56.0972 108.934 56.169 109.255 56.169C110.311 56.151 110.704 55.3432 110.847 53.7994ZM101.385 56.0792H102.727L103.335 54.1585H106.268L106.876 56.0792H108.361L105.821 48.3603H103.943L101.385 56.0792ZM104.802 49.5271L105.928 53.1173H103.657L104.802 49.5271ZM94.6237 56.0792L97.0564 52.0761V56.0792H98.3442V50.4246H97.0564L94.6237 54.4277V50.4246H93.3179V56.0792H94.6237ZM95.8043 49.5091C96.6986 49.5091 97.3426 48.8988 97.3962 48.0012H96.4303C96.3945 48.3782 96.1978 48.7013 95.8043 48.7013C95.4107 48.7013 95.2497 48.3782 95.214 48.0012H94.2302C94.2838 48.8988 94.892 49.5091 95.8043 49.5091ZM87.0574 55.1278V53.243H87.8265C88.5778 53.243 88.864 53.5661 88.864 54.1585V54.1944C88.864 54.8586 88.5241 55.1278 87.8265 55.1278H87.0574ZM85.7516 56.0792H87.9875C89.3112 56.0792 90.1876 55.4509 90.1876 54.1944V54.1585C90.1876 52.8839 89.2754 52.2736 88.0233 52.2736H87.0574V50.4246H85.7516V56.0792ZM90.7958 56.0792H92.1016V50.4246H90.7958V56.0792ZM83.2295 56.0792H84.5353V50.4246H83.2295V52.7044H80.8863V50.4246H79.5984V56.0792H80.9042V53.6738H83.2474V56.0792H83.2295ZM74.4468 56.0792H75.7168V53.2789L77.5413 56.0792H78.9723L76.9153 53.0275L78.8113 50.4246H77.4519L75.7347 52.9916V50.4246H74.4647V52.9916L72.7476 50.4246H71.3702L73.2663 53.0455L71.2093 56.0613H72.6223L74.4468 53.2609V56.0792ZM68.3294 55.1637C67.3456 55.1637 66.7732 54.4457 66.7732 53.2789V53.1891C66.7732 52.0223 67.3635 51.3222 68.3294 51.3222C69.2953 51.3222 69.8856 52.0402 69.8856 53.2071V53.2789C69.8677 54.4457 69.2953 55.1637 68.3294 55.1637ZM68.3115 56.1869C69.975 56.1869 71.2093 55.0381 71.2093 53.2789V53.1891C71.2093 51.4658 69.975 50.299 68.3294 50.299C66.6659 50.299 65.4317 51.4658 65.4317 53.2071V53.2968C65.4317 55.0201 66.648 56.1869 68.3115 56.1869ZM59.2248 58H60.5305V55.1817C60.8346 55.7382 61.4786 56.169 62.3729 56.169C63.8218 56.169 64.8772 55.074 64.8772 53.2609V53.1712C64.8772 51.3401 63.786 50.299 62.3729 50.299C61.5501 50.299 60.8346 50.7837 60.5305 51.3222V50.4067H59.2248V58ZM62.051 55.1458C61.1029 55.1458 60.4948 54.5534 60.4948 53.2968V53.2071C60.4948 51.9505 61.1387 51.3401 62.051 51.3401C62.9095 51.3401 63.5535 51.9505 63.5535 53.2071V53.2968C63.5356 54.4995 63.0169 55.1458 62.051 55.1458ZM55.4863 55.1637C54.5025 55.1637 53.9301 54.4457 53.9301 53.2789V53.1891C53.9301 52.0223 54.5204 51.3222 55.4863 51.3222C56.4522 51.3222 57.0425 52.0402 57.0425 53.2071V53.2789C57.0425 54.4457 56.4701 55.1637 55.4863 55.1637ZM55.4863 56.1869C57.1498 56.1869 58.3841 55.0381 58.3841 53.2789V53.1891C58.3841 51.4658 57.1498 50.299 55.5042 50.299C53.8407 50.299 52.6065 51.4658 52.6065 53.2071V53.2968C52.5886 55.0201 53.8228 56.1869 55.4863 56.1869ZM47.4192 56.0792H51.2113L51.2649 57.4435H52.3739V55.1099H51.5511V50.4246H47.4192C47.4192 51.1786 47.3476 52.6326 47.2403 53.584C47.1509 54.3918 47.0078 54.9483 46.6142 55.0919H46.2565V57.4435H47.3655L47.4192 56.0792ZM48.403 53.6738C48.4745 52.9916 48.5282 52.0761 48.5461 51.376H50.2632V55.0919H48.081C48.242 54.7508 48.3493 54.3021 48.403 53.6738ZM43.1799 55.1637C42.1961 55.1637 41.6237 54.4457 41.6237 53.2789V53.1891C41.6237 52.0223 42.214 51.3222 43.1799 51.3222C44.1458 51.3222 44.7361 52.0402 44.7361 53.2071V53.2789C44.7361 54.4457 44.1458 55.1637 43.1799 55.1637ZM43.162 56.1869C44.8255 56.1869 46.0597 55.0381 46.0597 53.2789V53.1891C46.0597 51.4658 44.8255 50.299 43.1799 50.299C41.5164 50.299 40.2821 51.4658 40.2821 53.2071V53.2968C40.2821 55.0201 41.5164 56.1869 43.162 56.1869ZM38.1178 56.0792H39.4236V50.4246H38.1178V52.7044H35.7746V50.4246H34.4688V56.0792H35.7746V53.6738H38.1178V56.0792ZM33.3598 51.8248C33.3598 50.8555 32.4475 50.299 31.2312 50.299C30.1043 50.299 29.1384 50.8196 28.9774 52.112H30.1579C30.2832 51.5915 30.6409 51.3222 31.1775 51.3222C31.7857 51.3222 32.0003 51.6094 32.0003 51.9864V52.0223C32.0003 52.489 31.7499 52.7224 31.1596 52.7224H30.4978V53.602H31.267C31.9288 53.602 32.2329 53.8353 32.2329 54.3559V54.3918C32.2329 54.8945 31.9109 55.1996 31.2491 55.1996C30.4799 55.1996 30.1401 54.8406 30.0327 54.2303H28.8343C28.9595 55.4689 29.7644 56.2049 31.267 56.2049C32.6801 56.2049 33.5744 55.4509 33.5744 54.4277V54.3918C33.5744 53.6738 33.1093 53.2609 32.3223 53.1353C33.0199 52.9916 33.3419 52.489 33.3419 51.8966V51.8248H33.3598ZM24.2194 52.6685C24.3446 51.7889 24.8812 51.2683 25.6682 51.2683C26.4732 51.2683 26.974 51.6992 27.0277 52.6685H24.2194ZM25.704 56.1869C27.1529 56.1869 28.1009 55.5407 28.2798 54.3559H27.0277C26.9382 54.9124 26.5268 55.2176 25.7398 55.2176C24.7739 55.2176 24.2373 54.6072 24.1836 53.5481H28.3156V53.1712C28.3156 51.1606 27.0456 50.3169 25.6504 50.3169C24.0405 50.3169 22.8599 51.4837 22.8599 53.225V53.3148C22.8599 55.0919 24.0584 56.1869 25.704 56.1869ZM18.9069 53.7994C18.9784 53.0814 18.9963 52.13 19.0321 51.394H20.6956V56.0792H21.9835V50.4246H17.8873C17.8873 50.4246 17.8515 52.6326 17.7621 53.584C17.6726 54.4636 17.5295 55.0381 17.1002 55.0381C16.9214 55.0381 16.8498 55.0022 16.8498 55.0022V56.0972C16.8498 56.0972 16.9929 56.169 17.3328 56.169C18.3702 56.151 18.7638 55.3432 18.9069 53.7994ZM12.3422 52.6685C12.4674 51.7889 13.0041 51.2683 13.7911 51.2683C14.596 51.2683 15.0969 51.6992 15.1505 52.6685H12.3422ZM13.8448 56.1869C15.2936 56.1869 16.2416 55.5407 16.4205 54.3559H15.1684C15.079 54.9124 14.6676 55.2176 13.8805 55.2176C12.9146 55.2176 12.378 54.6072 12.3243 53.5481H16.4384V53.1712C16.4384 51.1606 15.1863 50.3169 13.7732 50.3169C12.1633 50.3169 10.9649 51.4837 10.9649 53.225V53.3148C10.9828 55.0919 12.1812 56.1869 13.8448 56.1869ZM5.49139 56.0792H6.90449V52.4531L9.48026 56.0792H11.0901L8.12082 52.0223L10.9291 48.3423H9.44448L6.90449 51.8787V48.3603H5.49139V51.8787L2.9514 48.3603H1.43098L4.25717 52.0941L1.32366 56.0792H2.87985L5.49139 52.4352V56.0792ZM62.051 45.9907L64.4836 41.9876V45.9907H65.7715V40.3361H64.4836L62.051 44.3392V40.3361H60.7452V45.9907H62.051ZM63.2315 39.4386C64.1259 39.4386 64.7698 38.8282 64.8235 37.9307H63.8576C63.8218 38.3076 63.625 38.6308 63.2315 38.6308C62.838 38.6308 62.677 38.3076 62.6412 37.9307H61.6574C61.729 38.8282 62.3372 39.4386 63.2315 39.4386ZM55.8441 45.9907L58.2767 41.9876V45.9907H59.5646V40.3361H58.2767L55.8441 44.3392V40.3361H54.5383V45.9907H55.8441ZM52.4455 45.9907H53.948L51.5869 42.957L53.7692 40.3361H52.3561L50.3348 42.8493V40.3361H49.029V45.9907H50.3348V43.2262L52.4455 45.9907ZM45.5768 46.0984C47.0972 46.0984 48.081 45.1829 48.1883 43.8904H46.9899C46.9183 44.6982 46.328 45.0932 45.6304 45.0932C44.6645 45.0932 44.0742 44.4469 44.0742 43.2083V43.1185C44.0742 41.9517 44.7182 41.2696 45.6126 41.2696C46.3102 41.2696 46.7931 41.5747 46.9004 42.3466H48.1525C48.0094 40.7849 46.8289 40.2284 45.5768 40.2284C44.0027 40.2284 42.7327 41.3593 42.7327 43.1544V43.2442C42.7327 45.0393 43.9669 46.0984 45.5768 46.0984ZM38.1714 45.9907L40.6041 41.9876V45.9907H41.892V40.3361H40.6041L38.1714 44.3392V40.3361H36.8657V45.9907H38.1714ZM39.352 39.4386C40.2464 39.4386 40.8903 38.8282 40.944 37.9307H39.9781C39.9423 38.3076 39.7455 38.6308 39.352 38.6308C38.9585 38.6308 38.7975 38.3076 38.7796 37.9307H37.7958C37.8495 38.8282 38.4398 39.4386 39.352 39.4386ZM31.9646 45.9907L34.3972 41.9876V45.9907H35.6851V40.3361H34.3972L31.9646 44.3392V40.3361H30.6588V45.9907H31.9646ZM29.5319 41.7543C29.5319 40.7849 28.6196 40.2284 27.4212 40.2284C26.2943 40.2284 25.3284 40.749 25.1674 42.0415H26.348C26.4732 41.5209 26.8309 41.2516 27.3675 41.2516C27.9757 41.2516 28.1903 41.5388 28.1903 41.9158V41.9517C28.1903 42.4184 27.9399 42.6518 27.3496 42.6518H26.6878V43.5314H27.457C28.1188 43.5314 28.4229 43.7648 28.4229 44.2854V44.3213C28.4229 44.8239 28.1188 45.1291 27.4391 45.1291C26.6699 45.1291 26.3122 44.77 26.2049 44.1597H25.0064C25.1316 45.3983 25.9366 46.1343 27.4391 46.1343C28.8522 46.1343 29.7465 45.3804 29.7465 44.3572V44.3213C29.7465 43.6032 29.2636 43.1903 28.4944 43.0647C29.1741 42.9211 29.514 42.4184 29.514 41.8261V41.7543H29.5319ZM21.268 46.0984C22.1266 46.0984 22.6274 45.7753 22.9852 45.2906V45.9728H24.2551V42.2748C24.2551 40.731 23.2713 40.2105 22.0014 40.2105C20.7492 40.2105 19.6939 40.7669 19.5866 42.0774H20.8387C20.9102 41.5209 21.2322 41.1978 21.9119 41.1978C22.6811 41.1978 22.9315 41.5747 22.9315 42.3287V42.6159H22.2339C20.624 42.6159 19.354 43.0826 19.354 44.411C19.3898 45.5958 20.2484 46.0984 21.268 46.0984ZM21.5899 45.165C20.946 45.165 20.6777 44.8598 20.6777 44.3751C20.6777 43.675 21.3216 43.4596 22.3054 43.4596H22.9673V44.0161C22.9673 44.7341 22.377 45.165 21.5899 45.165ZM13.2545 47.9294H14.5602V45.1111C14.8643 45.6676 15.5083 46.0984 16.4026 46.0984C17.8515 46.0984 18.9069 45.0034 18.9069 43.1724V43.0826C18.9069 41.2516 17.8157 40.2105 16.4026 40.2105C15.5798 40.2105 14.8643 40.6951 14.5602 41.2337V40.3182H13.2545V47.9294ZM16.0628 45.0573C15.1147 45.0573 14.5066 44.4649 14.5066 43.2083V43.1185C14.5066 41.862 15.1505 41.2516 16.0628 41.2516C16.9214 41.2516 17.5653 41.862 17.5653 43.1185V43.2083C17.5653 44.411 17.0287 45.0573 16.0628 45.0573ZM10.0526 43.5314C10.7145 43.5314 11.0186 43.7827 11.0186 44.3213V44.3392C11.0186 44.8957 10.6787 45.1111 9.99899 45.1111H9.08674V43.5314H10.0526ZM9.82011 41.2157C10.4283 41.2157 10.7681 41.3593 10.7681 41.8799V41.8979C10.7681 42.4184 10.4819 42.6518 9.85589 42.6518H9.08674V41.2157H9.82011ZM7.78096 45.9907H10.2673C11.6088 45.9907 12.3601 45.3983 12.3601 44.3213V44.2854C12.3601 43.5494 11.8772 43.1544 11.108 43.0108C11.8056 42.8493 12.1097 42.3646 12.1097 41.7722V41.7543C12.1097 40.7131 11.2332 40.3361 10.0526 40.3361H7.78096V45.9907ZM2.03915 45.9907H7.0297V44.8598H3.47013V42.598H6.189V41.5209H3.47013V39.4027H6.85083V38.2717H2.03915V45.9907Z" fill="white"/>
</g>
<defs>
<clipPath id="clip0_1088_3895">
<rect width="159" height="58" fill="white"/>
</clipPath>
</defs>
</svg>
