<svg width="1920" height="899" viewBox="0 0 1920 899" fill="none" xmlns="http://www.w3.org/2000/svg">
<g clip-path="url(#clip0_1133_12498)">
<path opacity="0.3" d="M230.5 899H960L732 295.5C732 295.5 416 396.5 324.5 563.5C237.991 721.39 230.5 899 230.5 899Z" fill="#79F4A6"/>
<circle cx="959.5" cy="905.5" r="684.5" stroke="#CDFEDF" stroke-width="90"/>
<path d="M1551 906C1551 756.505 1495.9 619.909 1404.94 515.5C1296.3 390.79 1136.49 312 958.334 312C895.455 312 834.863 321.814 778 339.997" stroke="black" stroke-opacity="0.3" stroke-width="90"/>
<path d="M1505.29 898.707C1505.68 899.098 1506.32 899.098 1506.71 898.707L1513.07 892.343C1513.46 891.953 1513.46 891.319 1513.07 890.929C1512.68 890.538 1512.05 890.538 1511.66 890.929L1506 896.586L1500.34 890.929C1499.95 890.538 1499.32 890.538 1498.93 890.929C1498.54 891.319 1498.54 891.953 1498.93 892.343L1505.29 898.707ZM1371.01 545.059L1371.76 544.402L1371.01 545.059ZM792.011 383.812C844.399 367.059 900.267 358 958.334 358V356C900.058 356 843.985 365.092 791.401 381.907L792.011 383.812ZM1370.26 545.716C1454.2 642.073 1505 760.034 1505 898H1507C1507 759.503 1455.99 641.085 1371.76 544.402L1370.26 545.716ZM958.334 358C1122.62 358 1269.96 430.592 1370.26 545.716L1371.76 544.402C1271.11 428.862 1123.22 356 958.334 356V358Z" fill="black"/>
<path d="M275 905.5C275 611.905 459.841 361.482 719.5 264.256" stroke="#87EBAA" stroke-width="90"/>
<path d="M719.5 264.256C729.883 260.368 740.385 256.725 751 253.334" stroke="#006525" stroke-width="90"/>
<g style="mix-blend-mode:multiply" opacity="0.5">
<path d="M731 304.5L960 899L568 398.5L607.5 354L731 304.5Z" fill="#52DE86"/>
</g>
<path d="M720 264.069C655.094 288.314 594.855 322.129 541 363.796" stroke="#57D383" stroke-width="90"/>
<path opacity="0.8" d="M737.5 210.5L960 899L704 222C704 222 712 219 721 216L737.5 210.5Z" fill="#006525"/>
<g filter="url(#filter0_d_1133_12498)">
<circle cx="1400" cy="344" r="5" fill="black"/>
</g>
<g filter="url(#filter1_d_1133_12498)">
<circle cx="613" cy="280" r="5" fill="black"/>
</g>
<g filter="url(#filter2_d_1133_12498)">
<circle cx="322" cy="583" r="5" fill="black"/>
</g>
<path d="M959.5 900L511 328" stroke="#F6F6F6" stroke-width="4"/>
<path fill-rule="evenodd" clip-rule="evenodd" d="M959.5 266C606.314 266 320 552.314 320 905.5C320 1258.69 606.314 1545 959.5 1545C1312.69 1545 1599 1258.69 1599 905.5C1599 552.314 1312.69 266 959.5 266ZM230 905.5C230 502.608 556.608 176 959.5 176C1362.39 176 1689 502.608 1689 905.5C1689 1308.39 1362.39 1635 959.5 1635C556.608 1635 230 1308.39 230 905.5Z" stroke="#4B9367" stroke-dasharray="3 4"/>
<g filter="url(#filter3_d_1133_12498)">
<circle cx="725" cy="230" r="5" fill="black"/>
</g>
<path d="M959 899.5L702 221.5" stroke="#F6F6F6" stroke-width="4"/>
<g clip-path="url(#clip1_1133_12498)">
<path d="M1241.41 390.955L1231.87 385.919L1227.26 394.686L1221.93 391.875L1226.54 383.108L1217 378.071L1219.8 372.73L1229.34 377.767L1233.95 369L1239.28 371.811L1234.67 380.578L1244.21 385.615L1241.41 390.955Z" fill="white"/>
<path d="M1271.49 402.928C1272.81 405.694 1272.7 408.368 1271.15 410.936L1270.87 411.399C1269.2 414.172 1266.83 415.615 1263.77 415.722C1260.71 415.828 1257.08 414.612 1252.88 412.06C1248.65 409.492 1245.85 406.917 1244.48 404.326C1243.1 401.736 1243.18 399.168 1244.71 396.623L1244.87 396.349L1250.6 399.821L1250.44 400.087C1249.94 400.907 1250.17 401.903 1251.11 403.073C1252.05 404.243 1253.66 405.519 1255.94 406.902C1258.25 408.299 1260.19 409.082 1261.76 409.241C1263.32 409.401 1264.43 408.945 1265.08 407.866L1265.34 407.441C1265.95 406.438 1265.78 405.276 1264.85 403.954C1263.92 402.632 1262.29 401.272 1259.98 399.874C1257.91 398.613 1256.15 397.793 1254.72 397.413C1253.28 397.033 1252.31 397.124 1251.79 397.694L1246.14 394.268L1256.44 379.036L1279.65 393.128L1276.5 398.332L1258.21 387.225L1254.98 392.057C1257.5 392.178 1260.35 393.212 1263.56 395.157C1267.52 397.572 1270.17 400.163 1271.49 402.928Z" fill="white"/>
<path d="M1295.29 432.534L1292.06 437.252L1268.76 421.222L1271.76 416.838L1287.93 418.297C1290.12 418.495 1291.78 418.578 1292.9 418.555C1294.03 418.533 1294.89 418.373 1295.48 418.092C1296.07 417.811 1296.59 417.347 1297.03 416.702L1297.26 416.367C1297.99 415.304 1298.05 414.157 1297.46 412.926C1296.87 411.695 1295.66 410.457 1293.83 409.196C1291.91 407.874 1290.22 407.19 1288.77 407.16C1287.32 407.129 1286.16 407.745 1285.3 409.006L1284.79 409.75L1279.31 405.982L1279.84 405.2C1281.79 402.351 1284.24 400.847 1287.18 400.687C1290.12 400.528 1293.42 401.705 1297.08 404.22C1300.65 406.681 1302.97 409.302 1304.01 412.075C1305.06 414.848 1304.73 417.477 1303.03 419.953L1302.78 420.325C1301.94 421.541 1300.95 422.46 1299.8 423.083C1298.65 423.706 1297.15 424.094 1295.33 424.238C1293.5 424.382 1291.13 424.329 1288.22 424.071L1282.17 423.516L1295.29 432.534Z" fill="white"/>
<path d="M1325.51 442.258C1326.52 445.039 1326.15 447.584 1324.37 449.886L1324.1 450.243C1322.2 452.712 1319.67 453.813 1316.53 453.54C1313.38 453.274 1309.94 451.671 1306.16 448.754C1303.53 446.718 1301.56 444.59 1300.22 442.387C1298.9 440.184 1298.26 437.996 1298.33 435.823C1298.39 433.651 1299.17 431.607 1300.65 429.685L1304.6 424.549C1307 421.435 1309.97 419.87 1313.5 419.862C1317.03 419.854 1320.8 421.389 1324.8 424.496C1328.46 427.322 1330.78 430.202 1331.77 433.142C1332.76 436.074 1332.31 438.763 1330.43 441.21L1330.29 441.384L1325.03 437.305L1325.17 437.13C1325.9 436.18 1325.91 435.011 1325.2 433.628C1324.49 432.245 1323.14 430.779 1321.14 429.237C1318.75 427.383 1316.61 426.396 1314.71 426.274C1312.82 426.152 1311.22 426.927 1309.94 428.591L1309.12 429.662C1311.98 429.829 1315.12 431.235 1318.53 433.879C1322.18 436.682 1324.49 439.478 1325.51 442.258ZM1318.89 445.867C1319.63 444.917 1319.65 443.815 1318.97 442.57C1318.29 441.316 1316.88 439.865 1314.75 438.216C1312.92 436.803 1311.22 435.763 1309.64 435.087C1308.06 434.41 1306.7 434.144 1305.56 434.296C1304.68 435.694 1304.6 437.229 1305.34 438.9C1306.07 440.572 1307.62 442.319 1309.96 444.135C1312.04 445.753 1313.82 446.74 1315.3 447.105C1316.78 447.47 1317.89 447.166 1318.64 446.193L1318.89 445.867Z" fill="white"/>
<path d="M1337.94 472.973C1336.92 470.489 1336.62 468.027 1337.01 465.596C1337.41 463.165 1338.51 460.969 1340.32 459.002L1342.6 456.518C1344.42 454.527 1346.53 453.236 1348.91 452.636C1351.29 452.035 1353.76 452.142 1356.31 452.955C1358.87 453.76 1361.32 455.249 1363.65 457.399C1365.96 459.534 1367.62 461.843 1368.62 464.32C1369.62 466.796 1369.92 469.243 1369.51 471.658C1369.1 474.074 1367.98 476.277 1366.16 478.268L1363.88 480.752C1362.05 482.743 1359.96 484.042 1357.59 484.665C1355.24 485.28 1352.79 485.189 1350.25 484.376C1347.71 483.563 1345.28 482.082 1342.95 479.924C1340.62 477.782 1338.95 475.457 1337.94 472.973ZM1353.5 478.64C1355.5 478.815 1357.28 478.04 1358.87 476.315L1361.3 473.664C1362.86 471.962 1363.48 470.093 1363.15 468.057C1362.82 466.021 1361.57 463.993 1359.39 461.98C1357.21 459.967 1355.09 458.873 1353.03 458.706C1350.96 458.538 1349.15 459.306 1347.58 461L1345.15 463.651C1343.59 465.353 1342.98 467.214 1343.33 469.227C1343.68 471.241 1344.97 473.277 1347.19 475.335C1349.4 477.364 1351.49 478.465 1353.5 478.64Z" fill="white"/>
<path d="M1362.65 496.508C1361.79 493.963 1361.63 491.494 1362.17 489.094C1362.72 486.693 1363.95 484.566 1365.87 482.712L1368.29 480.372C1370.23 478.496 1372.42 477.333 1374.83 476.885C1377.24 476.429 1379.7 476.688 1382.2 477.645C1384.7 478.61 1387.06 480.236 1389.26 482.53C1391.44 484.801 1392.95 487.202 1393.8 489.739C1394.65 492.269 1394.8 494.731 1394.25 497.124C1393.7 499.517 1392.45 501.644 1390.51 503.52L1388.08 505.86C1386.14 507.737 1383.97 508.907 1381.58 509.385C1379.18 509.856 1376.75 509.613 1374.27 508.656C1371.79 507.699 1369.45 506.065 1367.24 503.779C1365.04 501.469 1363.51 499.046 1362.65 496.508ZM1377.84 503.103C1379.83 503.399 1381.66 502.73 1383.34 501.105L1385.94 498.605C1387.6 497.002 1388.32 495.171 1388.12 493.12C1387.91 491.069 1386.79 488.972 1384.73 486.83C1382.68 484.687 1380.62 483.472 1378.57 483.176C1376.52 482.879 1374.67 483.54 1373 485.136L1370.41 487.635C1368.75 489.238 1368.03 491.054 1368.26 493.09C1368.48 495.118 1369.64 497.23 1371.74 499.418C1373.83 501.583 1375.86 502.814 1377.84 503.103Z" fill="white"/>
<path d="M1385.91 521.495C1385.21 518.905 1385.19 516.428 1385.88 514.065C1386.57 511.703 1387.93 509.659 1389.96 507.919L1392.52 505.731C1394.58 503.976 1396.82 502.951 1399.25 502.639C1401.68 502.335 1404.12 502.738 1406.56 503.847C1409 504.956 1411.25 506.726 1413.32 509.15C1415.35 511.551 1416.73 514.042 1417.42 516.618C1418.12 519.193 1418.12 521.662 1417.42 524.017C1416.73 526.372 1415.35 528.424 1413.3 530.171L1410.74 532.359C1408.69 534.114 1406.45 535.155 1404.04 535.481C1401.62 535.808 1399.21 535.42 1396.79 534.311C1394.37 533.202 1392.13 531.44 1390.07 529.016C1388.01 526.593 1386.62 524.086 1385.91 521.495ZM1400.68 529.001C1402.65 529.411 1404.52 528.857 1406.3 527.337L1409.03 524.997C1410.79 523.501 1411.63 521.715 1411.55 519.657C1411.47 517.598 1410.47 515.433 1408.54 513.169C1406.62 510.905 1404.64 509.568 1402.62 509.15C1400.58 508.732 1398.7 509.271 1396.94 510.776L1394.2 513.116C1392.45 514.62 1391.62 516.39 1391.73 518.426C1391.83 520.469 1392.86 522.642 1394.83 524.952C1396.76 527.238 1398.71 528.591 1400.68 529.001Z" fill="white"/>
<path d="M1443.2 548.145L1447 553.273L1446.17 553.889L1407.88 550.045L1404.08 544.909L1404.8 544.37L1443.2 548.145ZM1416.51 532.891C1416.55 530.801 1417.42 529.123 1419.14 527.854L1419.53 527.558C1421.26 526.266 1423.12 525.901 1425.12 526.448C1427.12 527.003 1428.95 528.393 1430.61 530.634C1432.27 532.875 1433.07 535.018 1433.02 537.061C1432.97 539.105 1432.06 540.776 1430.31 542.083L1429.91 542.379C1428.21 543.656 1426.35 544.013 1424.36 543.458C1422.36 542.904 1420.55 541.536 1418.92 539.341C1417.28 537.13 1416.48 534.98 1416.51 532.891ZM1418.18 561.182C1418.22 559.093 1419.09 557.414 1420.8 556.145L1421.19 555.849C1422.92 554.557 1424.78 554.193 1426.78 554.74C1428.77 555.294 1430.61 556.685 1432.27 558.926C1433.93 561.167 1434.73 563.309 1434.68 565.353C1434.63 567.396 1433.72 569.068 1431.97 570.374L1431.57 570.671C1429.87 571.939 1428.01 572.304 1426.02 571.749C1424.02 571.195 1422.21 569.827 1420.58 567.632C1418.95 565.413 1418.14 563.264 1418.18 561.182ZM1424.48 538.269C1425.21 538.482 1425.91 538.353 1426.56 537.867L1426.96 537.57C1427.61 537.084 1427.93 536.461 1427.94 535.686C1427.95 534.919 1427.64 534.106 1427.01 533.263C1426.38 532.42 1425.71 531.895 1424.98 531.69C1424.25 531.485 1423.56 531.63 1422.91 532.108L1422.52 532.404C1421.89 532.868 1421.57 533.491 1421.55 534.273C1421.54 535.056 1421.83 535.853 1422.44 536.674C1423.05 537.525 1423.74 538.049 1424.48 538.269ZM1426.14 566.553C1426.87 566.766 1427.57 566.637 1428.22 566.15L1428.62 565.854C1429.27 565.368 1429.59 564.745 1429.6 563.97C1429.61 563.195 1429.3 562.39 1428.67 561.547C1428.04 560.703 1427.37 560.179 1426.64 559.974C1425.91 559.769 1425.22 559.913 1424.57 560.392L1424.18 560.688C1423.55 561.152 1423.23 561.775 1423.21 562.557C1423.2 563.34 1423.49 564.137 1424.1 564.958C1424.72 565.809 1425.4 566.34 1426.14 566.553Z" fill="white"/>
</g>
<path d="M1439.63 485.287L1438.87 485.944L1439.63 485.287ZM1596.29 899.707C1596.68 900.098 1597.32 900.098 1597.71 899.707L1604.07 893.343C1604.46 892.953 1604.46 892.319 1604.07 891.929C1603.68 891.538 1603.05 891.538 1602.66 891.929L1597 897.586L1591.34 891.929C1590.95 891.538 1590.32 891.538 1589.93 891.929C1589.54 892.319 1589.54 892.953 1589.93 893.343L1596.29 899.707ZM958.342 265C890.55 265 829.633 274.401 768.195 294.048L768.805 295.952C830.038 276.371 890.749 267 958.342 267V265ZM1440.38 484.63C1323.2 350.122 1150.68 265 958.342 265V267C1150.07 267 1322.06 351.852 1438.87 485.944L1440.38 484.63ZM1598 899C1598 737.725 1538.51 597.272 1440.38 484.63L1438.87 485.944C1536.71 598.254 1596 738.249 1596 899H1598Z" fill="black"/>
<path d="M960 902L738.5 208.5" stroke="#F6F6F6" stroke-width="4"/>
</g>
<defs>
<filter id="filter0_d_1133_12498" x="1385" y="332" width="30" height="30" filterUnits="userSpaceOnUse" color-interpolation-filters="sRGB">
<feFlood flood-opacity="0" result="BackgroundImageFix"/>
<feColorMatrix in="SourceAlpha" type="matrix" values="0 0 0 0 0 0 0 0 0 0 0 0 0 0 0 0 0 0 127 0" result="hardAlpha"/>
<feOffset dy="3"/>
<feGaussianBlur stdDeviation="5"/>
<feComposite in2="hardAlpha" operator="out"/>
<feColorMatrix type="matrix" values="0 0 0 0 0.520833 0 0 0 0 1 0 0 0 0 0.697369 0 0 0 1 0"/>
<feBlend mode="normal" in2="BackgroundImageFix" result="effect1_dropShadow_1133_12498"/>
<feBlend mode="normal" in="SourceGraphic" in2="effect1_dropShadow_1133_12498" result="shape"/>
</filter>
<filter id="filter1_d_1133_12498" x="598" y="268" width="30" height="30" filterUnits="userSpaceOnUse" color-interpolation-filters="sRGB">
<feFlood flood-opacity="0" result="BackgroundImageFix"/>
<feColorMatrix in="SourceAlpha" type="matrix" values="0 0 0 0 0 0 0 0 0 0 0 0 0 0 0 0 0 0 127 0" result="hardAlpha"/>
<feOffset dy="3"/>
<feGaussianBlur stdDeviation="5"/>
<feComposite in2="hardAlpha" operator="out"/>
<feColorMatrix type="matrix" values="0 0 0 0 0.520833 0 0 0 0 1 0 0 0 0 0.697369 0 0 0 1 0"/>
<feBlend mode="normal" in2="BackgroundImageFix" result="effect1_dropShadow_1133_12498"/>
<feBlend mode="normal" in="SourceGraphic" in2="effect1_dropShadow_1133_12498" result="shape"/>
</filter>
<filter id="filter2_d_1133_12498" x="307" y="571" width="30" height="30" filterUnits="userSpaceOnUse" color-interpolation-filters="sRGB">
<feFlood flood-opacity="0" result="BackgroundImageFix"/>
<feColorMatrix in="SourceAlpha" type="matrix" values="0 0 0 0 0 0 0 0 0 0 0 0 0 0 0 0 0 0 127 0" result="hardAlpha"/>
<feOffset dy="3"/>
<feGaussianBlur stdDeviation="5"/>
<feComposite in2="hardAlpha" operator="out"/>
<feColorMatrix type="matrix" values="0 0 0 0 0.520833 0 0 0 0 1 0 0 0 0 0.697369 0 0 0 1 0"/>
<feBlend mode="normal" in2="BackgroundImageFix" result="effect1_dropShadow_1133_12498"/>
<feBlend mode="normal" in="SourceGraphic" in2="effect1_dropShadow_1133_12498" result="shape"/>
</filter>
<filter id="filter3_d_1133_12498" x="710" y="218" width="30" height="30" filterUnits="userSpaceOnUse" color-interpolation-filters="sRGB">
<feFlood flood-opacity="0" result="BackgroundImageFix"/>
<feColorMatrix in="SourceAlpha" type="matrix" values="0 0 0 0 0 0 0 0 0 0 0 0 0 0 0 0 0 0 127 0" result="hardAlpha"/>
<feOffset dy="3"/>
<feGaussianBlur stdDeviation="5"/>
<feComposite in2="hardAlpha" operator="out"/>
<feColorMatrix type="matrix" values="0 0 0 0 0.520833 0 0 0 0 1 0 0 0 0 0.697369 0 0 0 1 0"/>
<feBlend mode="normal" in2="BackgroundImageFix" result="effect1_dropShadow_1133_12498"/>
<feBlend mode="normal" in="SourceGraphic" in2="effect1_dropShadow_1133_12498" result="shape"/>
</filter>
<clipPath id="clip0_1133_12498">
<rect width="1920" height="899" fill="white"/>
</clipPath>
<clipPath id="clip1_1133_12498">
<rect width="230" height="203" fill="white" transform="translate(1217 369)"/>
</clipPath>
</defs>
</svg>
