<svg width="47" height="47" viewBox="0 0 47 47" fill="none" xmlns="http://www.w3.org/2000/svg">
<rect width="47" height="47" rx="8" fill="white"/>
<g clip-path="url(#clip0_1088_3845)">
<path d="M15.0501 19.2831L22.5753 23.1455L19.509 26.2118L17.0781 26.0444L16.851 26.0287L16.6901 26.1896L15.4527 27.4271L14.869 28.0108L15.6567 28.2577L18.2913 29.0836L19.1172 31.7183L19.3642 32.506L19.9479 31.9222L21.1853 30.6848L21.3272 30.5429L21.3316 30.3423L21.3809 28.1217L24.4602 25.0424L28.0893 32.3196L28.3992 32.9411L28.8903 32.4501L30.1277 31.2126L30.3218 31.0185L30.2622 30.7506L28.3413 22.1083L32.9031 17.5465C33.7521 16.6975 33.7521 15.3209 32.9031 14.4719C32.054 13.6228 30.6775 13.6228 29.8284 14.4719L25.2666 19.0337L16.6244 17.1127L16.3564 17.0532L16.1623 17.2473L14.9249 18.4847L14.4398 18.9698L15.0501 19.2831Z" stroke="#006525"/>
</g>
<defs>
<clipPath id="clip0_1088_3845">
<rect width="30" height="30" fill="white" transform="translate(9 8)"/>
</clipPath>
</defs>
</svg>
