<svg width="47" height="47" viewBox="0 0 47 47" fill="none" xmlns="http://www.w3.org/2000/svg">
<rect width="47" height="47" rx="8" fill="white"/>
<path d="M15.8899 15.178H39.5001V22.4238C39.5001 24.3568 37.9331 25.9238 36.0001 25.9238H15.8899V15.178Z" stroke="#006525"/>
<path d="M9.79661 29.2798C8.69995 29.2798 7.78282 28.5111 7.55458 27.4832H37.8221V29.2798H9.79661Z" stroke="#006525"/>
<path d="M9.27149 19.2662C9.74033 18.7973 10.3762 18.5339 11.0393 18.5339H14.3305V25.9238H7.5V22.0732C7.5 21.4101 7.76339 20.7743 8.23223 20.3054L9.27149 19.2662Z" stroke="#006525"/>
<circle cx="11.195" cy="30.0594" r="1.45763" fill="white" stroke="#006525"/>
<circle cx="35.2456" cy="30.0594" r="1.45763" fill="white" stroke="#006525"/>
<circle cx="31.3304" cy="30.0594" r="1.45763" fill="white" stroke="#006525"/>
<circle cx="27.4153" cy="30.0594" r="1.45763" fill="white" stroke="#006525"/>
</svg>
