<svg width="44" height="44" viewBox="0 0 44 44" fill="none" xmlns="http://www.w3.org/2000/svg">
<path d="M40.3333 16.5001V27.5001C40.3333 32.0834 39.4167 35.2918 37.3633 37.3635L25.6667 25.6668L39.8384 11.4951C40.1684 12.9435 40.3333 14.5934 40.3333 16.5001Z" stroke="white" stroke-width="1.5" stroke-linecap="round" stroke-linejoin="round"/>
<path d="M39.8384 11.4951L11.495 39.8384C5.97665 38.5734 3.66667 34.7601 3.66667 27.5001V16.5001C3.66667 7.33341 7.33333 3.66675 16.5 3.66675H27.5C34.76 3.66675 38.5734 5.97676 39.8384 11.4951Z" stroke="white" stroke-width="1.5" stroke-linecap="round" stroke-linejoin="round"/>
<path d="M37.3633 37.3634C35.2917 39.4168 32.0833 40.3334 27.5 40.3334H16.5C14.5933 40.3334 12.9433 40.1684 11.495 39.8384L25.6667 25.6667L37.3633 37.3634Z" stroke="white" stroke-width="1.5" stroke-linecap="round" stroke-linejoin="round"/>
<path d="M11.44 14.6301C12.6866 9.2584 20.7533 9.2584 22 14.6301C22.715 17.7834 20.735 20.4601 18.9933 22.1101C17.7283 23.3201 15.73 23.3201 14.4467 22.1101C12.705 20.4601 10.7066 17.7834 11.44 14.6301Z" stroke="white" stroke-width="1.5"/>
<path d="M16.6734 15.9501H16.6899" stroke="white" stroke-width="2" stroke-linecap="round" stroke-linejoin="round"/>
</svg>
