<svg width="53" height="66" viewBox="0 0 53 66" fill="none" xmlns="http://www.w3.org/2000/svg">
<path d="M52.25 42.6562L52.25 0.750003L0.749994 0.750008L0.75 64.8599L52.25 42.6562Z" stroke="#006525" stroke-width="1.5"/>
<path d="M13.4481 34V22.48H18.1041C18.2161 22.48 18.3548 22.4853 18.5201 22.496C18.6855 22.5013 18.8428 22.5173 18.9921 22.544C19.6321 22.6453 20.1655 22.864 20.5921 23.2C21.0241 23.536 21.3468 23.96 21.5601 24.472C21.7735 24.984 21.8801 25.5493 21.8801 26.168C21.8801 26.792 21.7735 27.36 21.5601 27.872C21.3468 28.384 21.0241 28.808 20.5921 29.144C20.1655 29.48 19.6321 29.6987 18.9921 29.8C18.8428 29.8213 18.6828 29.8373 18.5121 29.848C18.3468 29.8587 18.2108 29.864 18.1041 29.864H15.1201V34H13.4481ZM15.1201 28.28H18.0401C18.1468 28.28 18.2641 28.2747 18.3921 28.264C18.5255 28.2533 18.6508 28.2347 18.7681 28.208C19.1095 28.128 19.3841 27.9813 19.5921 27.768C19.8001 27.5493 19.9495 27.2987 20.0401 27.016C20.1308 26.7333 20.1761 26.4507 20.1761 26.168C20.1761 25.8853 20.1308 25.6053 20.0401 25.328C19.9495 25.0453 19.8001 24.7973 19.5921 24.584C19.3841 24.3653 19.1095 24.216 18.7681 24.136C18.6508 24.104 18.5255 24.0827 18.3921 24.072C18.2641 24.0613 18.1468 24.056 18.0401 24.056H15.1201V28.28ZM23.4794 34V22.48H27.0874C27.194 22.48 27.3914 22.4827 27.6794 22.488C27.9727 22.4933 28.2527 22.5147 28.5194 22.552C29.4207 22.664 30.178 22.9867 30.7914 23.52C31.41 24.0533 31.8767 24.7307 32.1914 25.552C32.506 26.368 32.6634 27.264 32.6634 28.24C32.6634 29.2213 32.506 30.1227 32.1914 30.944C31.8767 31.76 31.41 32.4347 30.7914 32.968C30.178 33.496 29.4207 33.816 28.5194 33.928C28.2527 33.9653 27.9727 33.9867 27.6794 33.992C27.3914 33.9973 27.194 34 27.0874 34H23.4794ZM25.1914 32.408H27.0874C27.2687 32.408 27.4847 32.4027 27.7354 32.392C27.986 32.3813 28.2074 32.36 28.3994 32.328C28.986 32.216 29.4607 31.9627 29.8234 31.568C30.1914 31.168 30.4607 30.6773 30.6314 30.096C30.802 29.5147 30.8874 28.896 30.8874 28.24C30.8874 27.5627 30.7994 26.936 30.6234 26.36C30.4474 25.7787 30.1754 25.2933 29.8074 24.904C29.4447 24.5093 28.9754 24.2587 28.3994 24.152C28.2074 24.1147 27.9834 24.0933 27.7274 24.088C27.4767 24.0773 27.2634 24.072 27.0874 24.072H25.1914V32.408ZM34.5263 34V22.48H41.3503V24.152H36.1983V27.4H40.3903V29.08H36.1983V34H34.5263Z" fill="#006525"/>
</svg>
