<svg width="100" height="110" viewBox="0 0 100 110" fill="none" xmlns="http://www.w3.org/2000/svg">
<path d="M90 67.8182L90.3454 68.6493L90.9 68.4188V67.8182H90ZM48.8769 84.9076H47.9769C47.9769 85.2084 48.1272 85.4893 48.3773 85.6562C48.6275 85.8232 48.9446 85.8541 49.2223 85.7387L48.8769 84.9076ZM48.8769 62.1211L48.5315 61.29L47.9769 61.5205V62.1211H48.8769ZM90 45.0307H90.9C90.9 44.7299 90.7498 44.449 90.4996 44.2821C90.2494 44.1151 89.9324 44.0842 89.6546 44.1996L90 45.0307ZM89.6546 66.9871L48.5315 84.0765L49.2223 85.7387L90.3454 68.6493L89.6546 66.9871ZM49.7769 84.9076V62.1211H47.9769V84.9076H49.7769ZM49.2223 62.9522L90.3454 45.8618L89.6546 44.1996L48.5315 61.29L49.2223 62.9522ZM89.1 45.0307V67.8182H90.9V45.0307H89.1Z" fill="#060808"/>
<path d="M9 67.8182H8.1V68.4117L8.64549 68.6455L9 67.8182ZM48.8769 84.9076L48.5224 85.7349C48.8005 85.854 49.1198 85.8255 49.3724 85.659C49.6249 85.4924 49.7769 85.2102 49.7769 84.9076H48.8769ZM48.8769 62.1211H49.7769V61.5277L49.2315 61.2939L48.8769 62.1211ZM9 45.0307L9.35453 44.2035C9.07646 44.0843 8.75713 44.1128 8.50456 44.2793C8.252 44.4459 8.1 44.7282 8.1 45.0307H9ZM8.64549 68.6455L48.5224 85.7349L49.2314 84.0804L9.35451 66.991L8.64549 68.6455ZM49.7769 84.9076V62.1211H47.9769V84.9076H49.7769ZM49.2315 61.2939L9.35453 44.2035L8.64547 45.8579L48.5224 62.9483L49.2315 61.2939ZM8.1 45.0307V67.8182H9.9V45.0307H8.1Z" fill="#060808"/>
<path d="M55.1077 27.5846C55.1077 28.9614 52.5967 30.0769 49.4997 30.0769C46.4027 30.0769 43.8923 28.9615 43.8923 27.5846C43.8923 26.2084 46.4027 25.0922 49.4997 25.0922C52.5967 25.0922 55.1077 26.2083 55.1077 27.5846Z" stroke="#060808" stroke-width="1.8" stroke-miterlimit="10" stroke-linecap="round" stroke-linejoin="round"/>
<path d="M43.8923 34.8338C43.8923 36.3339 46.4054 37.5538 49.5011 37.5538C52.5967 37.5538 55.1077 36.3324 55.1077 34.8338V27.5846C55.1077 29.0831 52.596 30.3015 49.5011 30.3015C46.4054 30.3015 43.8923 29.0825 43.8923 27.5846V34.8338Z" stroke="#060808" stroke-width="1.8" stroke-miterlimit="10" stroke-linecap="round" stroke-linejoin="round"/>
<path d="M55.1077 45.0307C55.1077 46.4071 52.5967 47.523 49.4997 47.523C46.4027 47.523 43.8923 46.4072 43.8923 45.0307C43.8923 43.6542 46.4027 42.5384 49.4997 42.5384C52.5967 42.5384 55.1077 43.6542 55.1077 45.0307Z" stroke="#006525" stroke-width="1.8" stroke-miterlimit="10" stroke-linecap="round" stroke-linejoin="round"/>
<path d="M43.8923 52.283C43.8923 53.7816 46.4054 54.9999 49.5011 54.9999C52.5967 54.9999 55.1077 53.7809 55.1077 52.283V45.0307C55.1077 46.5308 52.596 47.75 49.5011 47.75C46.4054 47.75 43.8923 46.5294 43.8923 45.0307V52.283Z" stroke="#006525" stroke-width="1.8" stroke-miterlimit="10" stroke-linecap="round" stroke-linejoin="round"/>
<path d="M75.0461 36.3076C75.0461 37.6837 72.5353 38.7999 69.4385 38.7999C66.3416 38.7999 63.8308 37.6839 63.8308 36.3076C63.8308 34.9308 66.3416 33.8153 69.4385 33.8153C72.5353 33.8153 75.0461 34.9307 75.0461 36.3076Z" stroke="#060808" stroke-width="1.8" stroke-miterlimit="10" stroke-linecap="round" stroke-linejoin="round"/>
<path d="M63.8308 43.5557C63.8308 45.0556 66.3401 46.2769 69.4381 46.2769C72.5334 46.2769 75.0461 45.0557 75.0461 43.5557V36.3076C75.0461 37.8075 72.5334 39.0241 69.4381 39.0241C66.3401 39.0241 63.8308 37.8061 63.8308 36.3076V43.5557Z" stroke="#060808" stroke-width="1.8" stroke-miterlimit="10" stroke-linecap="round" stroke-linejoin="round"/>
<path d="M35.1692 36.3076C35.1692 37.6837 32.6584 38.7999 29.5615 38.7999C26.4646 38.7999 23.9539 37.6839 23.9539 36.3076C23.9539 34.9308 26.4646 33.8153 29.5615 33.8153C32.6584 33.8153 35.1692 34.9307 35.1692 36.3076Z" stroke="#060808" stroke-width="1.8" stroke-miterlimit="10" stroke-linecap="round" stroke-linejoin="round"/>
<path d="M23.9538 43.5557C23.9538 45.0556 26.4619 46.2769 29.5595 46.2769C32.6571 46.2769 35.1692 45.0557 35.1692 43.5557V36.3076C35.1692 37.8075 32.6571 39.0241 29.5595 39.0241C26.4619 39.0241 23.9538 37.8061 23.9538 36.3076V43.5557Z" stroke="#060808" stroke-width="1.8" stroke-miterlimit="10" stroke-linecap="round" stroke-linejoin="round"/>
<path d="M9 44.4544L23.4666 38.4643V43.457C23.4666 44.7793 26.0536 45.8558 29.2488 45.8558C32.4439 45.8558 35.0352 44.7792 35.0352 43.457V37.0677C35.0352 36.1488 33.7717 35.3577 31.9383 34.9556L43.7106 30.0789V35.0695C43.7106 36.3905 46.3019 37.4669 49.4971 37.4669C52.6901 37.4669 55.2814 36.3917 55.2814 35.0695V30.0769C58.4807 31.4005 62.678 33.1405 67.0618 34.9549C65.2284 35.3576 63.9649 36.1482 63.9649 37.067V43.4563C63.9649 44.7786 66.554 45.8551 69.7506 45.8551C72.9443 45.8551 75.537 44.7785 75.537 43.4563V38.4636C83.4012 41.7232 90 44.4544 90 44.4544" stroke="#060808" stroke-width="1.8" stroke-miterlimit="10" stroke-linecap="round" stroke-linejoin="round"/>
<g clip-path="url(#clip0_1038_20127)">
<path d="M19.7952 55.2387C21.5622 55.8896 22.7871 57.511 23.261 59.5484L21.7912 59.5099C21.514 58.2505 20.8474 57.3261 19.7791 56.9333C18.3132 56.3941 17.5582 57.407 17.5341 59.3982C17.51 61.3855 18.2369 62.9414 19.7028 63.4806C20.7711 63.8734 21.4538 63.4459 21.759 62.4022L23.2169 63.4459C22.7028 65.1213 21.4458 65.8299 19.6827 65.179C17.3655 64.3279 15.9679 61.8053 16 58.8359C16.0361 55.8626 17.4819 54.3876 19.7952 55.2387Z" fill="black"/>
<path d="M30.8273 59.4983L30.7149 69.0419L29.261 68.5066L29.3052 64.5744L25.8594 63.3034L25.8153 67.2395L24.3574 66.7042L24.4699 57.1605L25.9237 57.6959L25.8795 61.6204L29.3253 62.8875L29.3695 58.963L30.8273 59.4983Z" fill="black"/>
<path d="M33.4016 68.7608C34.2811 69.0843 34.9277 70.0895 34.9157 71.2102C34.9076 72.0344 34.6144 72.2308 34.0723 72.6121L33.0562 73.3362L34.8835 74.0101L34.8715 74.9999L31.7269 73.8407L31.7389 72.9279L33.6466 71.5491C33.9317 71.3412 34.0402 71.1139 34.0442 70.8713C34.0482 70.3629 33.7871 69.8931 33.3735 69.739C32.9438 69.5811 32.6385 69.8777 32.6466 70.3475L31.7711 70.024C31.7831 68.8879 32.4418 68.4103 33.4016 68.7608Z" fill="black"/>
<path d="M43 68.6683L42.9839 70.0587L35.9197 67.4552L35.9357 66.0687L43 68.6683Z" fill="black"/>
</g>
<g clip-path="url(#clip1_1038_20127)">
<path d="M62.069 66.3037L62.092 67.9484L55.023 70.9999L55 69.3553L62.069 66.3037Z" fill="black"/>
<path d="M66.6935 58.5325C68.4598 57.7686 69.7203 58.6104 70.2452 60.5903L68.7854 61.8218C68.4789 60.5825 67.7931 60.0758 66.7241 60.5396C65.2567 61.1749 64.5402 63.0105 64.5709 65.3606C64.6015 67.7067 65.3602 68.9071 66.8314 68.2718C67.9004 67.8081 68.5632 66.7207 68.8353 65.2358L70.3103 65.1969C69.8467 67.6015 68.6245 69.5151 66.8582 70.2789C64.5441 71.2766 63.0881 69.5268 63.0421 66.0231C62.9885 62.5116 64.3793 59.5302 66.6935 58.5325Z" fill="black"/>
<path d="M77.7356 53.9999L77.8889 65.2709L76.433 65.8984L76.3678 61.2489L72.9234 62.7377L72.9847 67.3871L71.5287 68.0146L71.3755 56.7475L72.8314 56.1162L72.8927 60.7501L76.341 59.2613L76.2797 54.6274L77.7356 53.9999Z" fill="black"/>
<path d="M81.8544 62.1921L81.8697 63.3612L80.977 65.041C81.6245 65.0449 81.9847 65.7347 82 66.6545C82.0153 67.8977 81.3103 69.1565 80.4598 69.5229C79.7854 69.8152 79.1456 69.4566 78.9425 68.5641L79.7625 67.886C79.8582 68.3342 80.1494 68.4823 80.4445 68.3537C80.8314 68.1861 81.1456 67.5937 81.1379 67.0247C81.1303 66.4596 80.8314 66.1205 80.4176 66.2998C80.295 66.3544 80.1763 66.4596 80.069 66.5999L79.6782 65.7854L80.8697 63.7938L79.0651 64.5733L79.0498 63.4041L81.8544 62.1921Z" fill="black"/>
</g>
<defs>
<clipPath id="clip0_1038_20127">
<rect width="27" height="20" fill="white" transform="translate(16 54.9999)"/>
</clipPath>
<clipPath id="clip1_1038_20127">
<rect width="27" height="17" fill="white" transform="translate(55 53.9999)"/>
</clipPath>
</defs>
</svg>
