<svg width="104" height="45" viewBox="0 0 104 45" fill="none" xmlns="http://www.w3.org/2000/svg">
<path d="M102.335 31.8631H101.516V33.232H98.787H78.1558H77.0642H60.5811H59.4895H43.0064H41.9148H25.4317H24.3401H4.74593H2.1261V31.8631H1.36198V35.5864H2.1261V34.2175H11.5138H25.1588H78.4287H78.4833H92.0737H92.1282H101.516V35.5864H102.335V31.8631ZM25.4317 1.42026V32.1369H41.9148V1.42026H25.4317ZM24.3401 32.1369V1.42026H8.78484C8.02072 1.42026 7.31119 1.69403 6.76539 2.24156C6.21959 2.73434 5.8921 3.44614 5.83752 4.26744V32.1369H9.71269V16.6417H10.8043V19.5984H17.1901V16.6417H18.2817V32.1369H24.3401ZM43.0064 1.42026V32.1369H59.4895V1.42026H43.0064ZM60.5811 1.42026V32.1369H77.0642V1.42026H60.5811ZM78.1558 1.42026V32.1369H85.2512V16.6417H86.3428V19.5984H92.7286V16.6417H93.8202V32.1369H97.6954L97.6408 4.21268C97.6408 3.44614 97.3133 2.73434 96.7675 2.24156C96.2217 1.69403 95.5122 1.42026 94.7481 1.42026H78.1558ZM17.1901 32.1369V30.6586H10.8043V32.1369H17.1901ZM17.1901 29.5635V25.676H10.8043V29.5635H17.1901ZM17.1901 24.5809V20.6934H10.8043V24.5809H17.1901ZM92.7286 32.1369V30.6586H86.3428V32.1369H92.7286ZM92.7286 29.5635V25.676H86.3428V29.5635H92.7286ZM92.7286 24.5809V20.6934H86.3428V24.5809H92.7286ZM4.74593 32.1369C4.80051 22.8288 4.74593 13.5208 4.74593 4.21268C4.80051 3.11762 5.29173 2.13206 6.00127 1.42026C6.71081 0.763222 7.69324 0.325195 8.78484 0.325195H94.7481C95.7851 0.325195 96.7675 0.708469 97.5317 1.42026C98.2412 2.13206 98.7324 3.11762 98.7324 4.15793C99.0599 13.247 98.787 22.9383 98.787 32.1369H100.424V30.7681H100.97H103.426V36.6814H100.424V35.3126H95.3485C95.5122 35.4768 95.6759 35.5864 95.8397 35.7506C96.8221 36.7362 97.4225 38.0503 97.4225 39.5286C97.4225 41.0069 96.8221 42.321 95.8397 43.3066C94.9118 44.2374 93.6019 44.8397 92.1282 44.8397C91.4187 44.8397 90.7092 44.7302 90.0542 44.4564C89.5084 44.1826 88.9626 43.8541 88.4714 43.4161H82.0856C81.5943 43.8541 81.0485 44.1826 80.5027 44.4564C79.8478 44.7302 79.1382 44.8397 78.4287 44.8397C76.955 44.8397 75.6451 44.2374 74.6627 43.3066C73.7348 42.321 73.1345 41.0069 73.1345 39.5286C73.1345 38.0503 73.7348 36.7362 74.6627 35.7506C74.8264 35.5864 75.0448 35.4768 75.2085 35.3126H28.379C28.5973 35.4768 28.7611 35.5864 28.9248 35.7506C29.8527 36.7362 30.453 38.0503 30.453 39.5286C30.453 41.0069 29.8527 42.321 28.9248 43.3066C27.9424 44.2374 26.6324 44.8397 25.1588 44.8397C24.4492 44.8397 23.7943 44.7302 23.1393 44.4564C22.539 44.1826 21.9932 43.8541 21.5565 43.4161H15.1161C14.6795 43.8541 14.1337 44.1826 13.5333 44.4564C12.8783 44.7302 12.1688 44.8397 11.5138 44.8397C10.0402 44.8397 8.67568 44.2374 7.74782 43.3066C6.76538 42.321 6.165 41.0069 6.165 39.5286C6.165 38.0503 6.76538 36.7362 7.74782 35.7506C7.91156 35.5864 8.0753 35.4768 8.29362 35.3126H3.2177V36.6814H0.270386V30.7681H3.2177V32.1369H4.74593ZM90.4363 43.4161H90.4908C90.9821 43.6351 91.5279 43.7446 92.1282 43.7446C93.2744 43.7446 94.3114 43.2518 95.0756 42.54C95.8397 41.7735 96.3309 40.6784 96.3309 39.5286C96.3309 38.4883 95.9488 37.5027 95.2939 36.7909V41.7187H91.5279L90.4363 43.4161ZM94.0931 35.8054C93.4927 35.4768 92.8378 35.3126 92.1282 35.3126H92.0737C91.5279 35.3126 90.9275 35.4221 90.4363 35.6411C90.3271 35.6959 90.218 35.7506 90.1634 35.8054H94.0931ZM88.3622 35.8054C88.526 35.6411 88.6897 35.4768 88.908 35.3126H81.6489C81.8672 35.4768 82.031 35.6411 82.1947 35.8054H88.3622ZM80.3936 35.8054C80.339 35.7506 80.2298 35.6959 80.1207 35.6411C79.6295 35.4221 79.0291 35.3126 78.4833 35.3126H78.4287C77.2825 35.3126 76.2455 35.8054 75.4814 36.5172C74.7173 37.2837 74.2261 38.3788 74.2261 39.5286C74.2261 40.6784 74.7173 41.7735 75.4814 42.54C76.2455 43.2518 77.2825 43.7446 78.4287 43.7446C78.9745 43.7446 79.5749 43.6351 80.0661 43.4161C80.3936 43.3066 80.7211 43.0876 81.0485 42.8685L80.339 41.7187H76.5184V35.8054H77.0642H80.3936ZM94.2023 36.9004H77.61V40.6237H80.8848L81.9764 42.321H89.8905L90.9821 40.6237H94.2023V36.9004ZM23.4668 43.4161H23.5214C24.0672 43.6351 24.613 43.7446 25.1588 43.7446C26.3595 43.7446 27.3966 43.2518 28.1607 42.54C28.9248 41.7735 29.3614 40.6784 29.3614 39.5286C29.3614 38.4883 28.9794 37.5027 28.379 36.7909V41.7187H24.613L23.5214 43.4161H23.4668ZM27.1237 35.8054C26.5779 35.4768 25.8683 35.3126 25.1588 35.3126C24.5584 35.3126 24.0126 35.4221 23.4668 35.6411C23.4122 35.6959 23.3031 35.7506 23.1939 35.8054H27.1237ZM21.3928 35.8054C21.5565 35.6411 21.7748 35.4768 21.9386 35.3126H14.734C14.8978 35.4768 15.1161 35.6411 15.2798 35.8054H21.3928ZM13.4787 35.8054C13.3695 35.7506 13.2604 35.6959 13.1512 35.6411C12.66 35.4221 12.1142 35.3126 11.5138 35.3126C10.3131 35.3126 9.27606 35.8054 8.51194 36.5172C7.74782 37.2837 7.2566 38.3788 7.2566 39.5286C7.2566 40.6784 7.74782 41.7735 8.51194 42.54C9.27606 43.2518 10.3131 43.7446 11.5138 43.7446C12.0596 43.7446 12.6054 43.6351 13.0966 43.4161C13.4787 43.3066 13.8062 43.0876 14.0791 42.8685L13.3695 41.7187H9.60353V35.8054H10.1493H13.4787ZM27.2874 36.9004H10.6951V40.6237H13.9699L15.0615 42.321H22.921L24.0126 40.6237H27.2874V36.9004Z" fill="#006525"/>
</svg>
