<svg width="100" height="110" viewBox="0 0 100 110" fill="none" xmlns="http://www.w3.org/2000/svg">
<path d="M73 43.9999H79.5V40.4999H84L86 46.9999V64.9999L84 71.4999H79.5V67.9999H73.5" stroke="#006525" stroke-width="1.8"/>
<path d="M66.5 72.4999V84.9999H43L36.5 72.4999H21V39.9999H30.5V31.4999H66.5V39.9999H73V72.4999H66.5ZM66.5 72.4999H50" stroke="#060808" stroke-width="1.8"/>
<path d="M42 24.9999H54M42 24.9999V30.9999M42 24.9999H32M54 24.9999V30.9999M54 24.9999H64.5" stroke="#060808" stroke-width="1.8"/>
<path d="M14 62.4999L14 50.4999M14 62.4999L21 62.4999M14 62.4999L14 72.4999M14 50.4999L21 50.4999M14 50.4999L14 39.9999" stroke="#060808" stroke-width="1.8"/>
<circle cx="31" cy="54.9999" r="3.1" stroke="#006525" stroke-width="1.8"/>
<circle cx="48" cy="54.9999" r="3.1" stroke="#006525" stroke-width="1.8"/>
<circle cx="63" cy="54.9999" r="3.1" stroke="#006525" stroke-width="1.8"/>
</svg>
