<svg width="88" height="92" viewBox="0 0 88 92" fill="none" xmlns="http://www.w3.org/2000/svg">
<path d="M81.0926 45.1229C79.8723 45.1229 78.6521 45.5297 77.7024 46.2079V45.8012C77.7024 42.411 74.9905 39.6991 71.6003 39.6991C70.3801 39.6991 69.1599 40.1058 68.2101 40.7841V40.3773C68.2101 36.9871 65.4982 34.2752 62.108 34.2752C60.8878 34.2752 59.6676 34.682 58.7179 35.3602V23.4265C58.7179 20.0364 56.006 17.3245 52.6158 17.3245C49.2256 17.3245 46.5137 20.0364 46.5137 23.4265V54.0738C41.6318 54.8873 38.3768 56.922 37.0214 60.3122C32.8169 71.0237 48.9541 90.5526 49.6315 91.3638C49.9029 91.6353 50.3097 91.9058 50.7164 91.9058C50.9879 91.9058 51.3947 91.7705 51.5299 91.6343C52.0719 91.0923 52.2082 90.2779 51.6652 89.7359C47.3253 84.4472 36.6128 69.1233 39.5962 61.5296C40.5459 59.2244 42.851 57.5975 46.5119 56.9192V62.7498C46.5119 63.5633 47.0539 64.1063 47.8683 64.1063C48.6818 64.1063 49.2248 63.5642 49.2248 62.7498V23.4237C49.2248 21.5253 50.7165 20.0336 52.615 20.0336C54.5134 20.0336 56.0052 21.5253 56.0052 23.4237V53.2573C56.0052 54.0708 56.5472 54.6138 57.3616 54.6138C58.1751 54.6138 58.7181 54.0717 58.7181 53.2573V40.3749C58.7181 38.4764 60.2098 36.9847 62.1083 36.9847C64.0067 36.9847 65.4984 38.4764 65.4984 40.3749V53.9356C65.4984 54.7491 66.0404 55.292 66.8549 55.292C67.6684 55.292 68.2114 54.75 68.2114 53.9356V45.7987C68.2114 43.9002 69.7031 42.4085 71.6015 42.4085C73.5 42.4085 74.9917 43.9002 74.9917 45.7987V55.2909C74.9917 56.1044 75.5337 56.6474 76.3482 56.6474C77.1617 56.6474 77.7046 56.1054 77.7046 55.2909V51.2225C77.7046 49.324 79.1964 47.8323 81.0948 47.8323C82.9933 47.8323 84.485 49.324 84.485 51.2225V56.6463C84.485 63.9686 83.4 84.3101 78.1114 89.5988C77.5694 90.1408 77.5694 90.9553 78.1114 91.4973C78.3829 91.7687 78.7897 91.904 79.0612 91.904C79.3326 91.904 79.7394 91.7687 80.0109 91.4973C87.0627 84.4454 87.1981 57.7311 87.1981 56.6462V51.2224C87.1952 47.8351 84.4832 45.123 81.0931 45.123L81.0926 45.1229Z" fill="white"/>
<path d="M13.6961 8.10193C14.1028 8.10193 14.3743 7.96667 14.6458 7.69518L17.7645 4.57646V13.7973C17.7645 14.6108 18.3065 15.1537 19.121 15.1537C19.9345 15.1537 20.4774 14.6117 20.4774 13.7973L20.4765 4.57646L23.5952 7.69518C23.8667 7.96666 24.2734 8.10193 24.5449 8.10193C24.8164 8.10193 25.2231 7.96667 25.4946 7.69518C26.0366 7.15317 26.0366 6.33872 25.4946 5.79673L20.0708 0.37293C19.9356 0.237665 19.7993 0.101449 19.6641 0.101449C19.3926 -0.0338164 18.9859 -0.0338164 18.5791 0.101449C18.4438 0.236715 18.3076 0.236715 18.1724 0.37293L12.7486 5.79673C12.2065 6.33875 12.2065 7.15319 12.7486 7.69518C12.8829 7.96666 13.2896 8.10193 13.6964 8.10193H13.6961Z" fill="white"/>
<path d="M23.5952 28.9856L20.4764 32.1044V22.8836C20.4764 22.0701 19.9344 21.5271 19.12 21.5271C18.3065 21.5271 17.7635 22.0691 17.7635 22.8836V32.1044L14.6448 28.9856C14.1028 28.4436 13.2883 28.4436 12.7463 28.9856C12.2044 29.5277 12.2043 30.3421 12.7463 30.8841L18.1701 36.3079C18.3054 36.4432 18.4416 36.5794 18.5769 36.5794C18.7122 36.7146 18.9836 36.7146 19.1189 36.7146C19.2542 36.7146 19.5257 36.7146 19.6609 36.5794C19.7962 36.4441 19.9324 36.4441 20.0677 36.3079L25.4915 30.8841C26.0335 30.3421 26.0335 29.5276 25.4915 28.9856C24.9514 28.5789 24.1379 28.5789 23.5949 28.9856H23.5952Z" fill="white"/>
<path d="M38.1052 18.9507C38.2405 18.6792 38.2405 18.2725 38.1052 17.8657C37.97 17.7305 37.97 17.5942 37.8338 17.459L32.41 12.0352C31.8679 11.4932 31.0535 11.4932 30.5115 12.0352C29.9695 12.5772 29.9695 13.3916 30.5115 13.9336L33.6302 17.0523H24.4085C23.595 17.0523 23.052 17.5944 23.052 18.4088C23.052 19.2223 23.594 19.7653 24.4085 19.7653H33.6293L30.5105 22.884C29.9685 23.426 29.9685 24.2404 30.5105 24.7824C30.782 25.0539 31.1888 25.1892 31.4603 25.1892C31.7317 25.1892 32.1385 25.0539 32.41 24.7824L37.8338 19.3586C37.969 19.2224 38.1052 19.0872 38.1052 18.9509V18.9507Z" fill="white"/>
<path d="M4.61028 19.764H13.8311C14.6446 19.764 15.1875 19.222 15.1875 18.4076C15.1875 17.5941 14.6455 17.0511 13.8311 17.0511H4.61028L7.729 13.9324C8.27101 13.3904 8.27101 12.5759 7.729 12.0339C7.18698 11.492 6.37254 11.4919 5.83055 12.0339L0.406746 17.4577C0.27148 17.593 0.135263 17.7292 0.135263 17.8645C-2.78568e-06 18.0017 0 18.1369 0 18.4084C0 18.5437 -2.78568e-06 18.8152 0.135263 18.9504C0.270529 19.0857 0.270531 19.2219 0.406746 19.3572L5.83055 24.781C6.10203 25.0525 6.50878 25.1877 6.78026 25.1877C7.05174 25.1877 7.45849 25.0525 7.72997 24.781C8.27198 24.239 8.27198 23.4245 7.72997 22.8825L4.61028 19.764Z" fill="white"/>
</svg>
