<svg width="20" height="17" viewBox="0 0 20 17" fill="none" xmlns="http://www.w3.org/2000/svg">
<path d="M1.22615 7.40355L13.1395 2.35766C14.3155 1.83205 18.3036 0.150082 18.3036 0.150082C18.3036 0.150082 20.1443 -0.585778 19.9909 1.20131C19.9398 1.93717 19.5307 4.51267 19.1217 7.29843L17.8435 15.5506C17.8435 15.5506 17.7412 16.7595 16.872 16.9697C16.0028 17.18 14.5711 16.2339 14.3155 16.0236C14.111 15.8659 10.4807 13.5007 9.15133 12.3443C8.79341 12.029 8.38437 11.3982 9.20246 10.6624C11.0431 8.92783 13.2417 6.77281 14.5711 5.40622C15.1847 4.77548 15.7982 3.30376 13.2417 5.09085L6.03238 10.0842C6.03238 10.0842 5.2143 10.6098 3.6804 10.1367C2.14649 9.66369 0.356936 9.03295 0.356936 9.03295C0.356936 9.03295 -0.870188 8.24453 1.22615 7.40355Z" fill="white"/>
</svg>
