<svg width="20" height="20" viewBox="0 0 20 20" fill="none" xmlns="http://www.w3.org/2000/svg">
<circle cx="10" cy="10" r="10" fill="#E1E1E1"/>
<path d="M9.244 11.844H10.465C10.465 11.404 10.454 11.206 10.663 10.854C10.861 10.513 11.279 10.271 11.631 9.886C12.104 9.391 12.423 8.797 12.423 8.093C12.423 7.576 12.247 7.07 11.917 6.696C11.455 6.146 10.729 5.926 9.948 5.926C9.398 5.926 8.837 6.091 8.408 6.421C7.902 6.795 7.605 7.433 7.55 8.115H8.76C8.749 7.796 8.859 7.499 9.09 7.301C9.299 7.103 9.629 7.015 9.981 7.015C10.377 7.015 10.762 7.125 10.993 7.422C11.147 7.598 11.202 7.84 11.202 8.126C11.202 8.5 11.125 8.819 10.839 9.149C10.311 9.71 9.849 9.853 9.541 10.447C9.31 10.865 9.244 11.316 9.244 11.844ZM9.255 14H10.465V12.669H9.255V14Z" fill="#181D1D"/>
</svg>
