<svg width="133" height="49" viewBox="0 0 133 49" fill="none" xmlns="http://www.w3.org/2000/svg">
<path d="M114.716 41.1198V45.8833H110.95L110.022 47.2522C110.131 47.3069 110.295 47.3617 110.404 47.4164C110.95 47.6354 111.495 47.7449 112.041 47.7449C113.187 47.7449 114.279 47.2521 115.043 46.5404C115.807 45.7738 116.244 44.6787 116.244 43.5289C116.244 43.0361 116.189 42.5434 116.026 42.1053C115.862 41.7221 115.698 41.3935 115.48 41.1198H114.716ZM28.0975 7.88448H105.273V13.6883H27.5517V7.88448H28.0975ZM104.182 8.97955H28.6433V12.5933H104.182V8.97955ZM97.3593 37.3418H104.182V16.5903H97.3593V37.3418ZM104.182 38.4369H97.3593V40.0247H104.182V38.4369ZM28.8616 37.3418H35.7387V16.5903H28.8616V37.3418ZM35.7387 38.4369H28.8616V40.0247H35.7387V38.4369ZM16.1446 5.36583H117.172L105.055 3.44946H101.999V1.09507H31.3723V3.44946H28.2613L16.1446 5.36583ZM121.102 6.4609H12.2148L5.93811 13.6883V32.9615H27.77V15.4952H36.8303V32.9615H96.2677V15.4952H105.273V32.9615H127.324V13.6883L121.102 6.4609ZM27.77 34.0566H5.93811V36.1372H5.9927V39.2582H5.93811V41.5578H14.0705L16.7995 40.0795L17.0724 40.0247H19.5831H27.77V34.0566ZM96.2677 34.0566H36.8303V40.0247H46.8184H50.7482H82.5682H87.4258H96.2677V34.0566ZM127.324 34.0566H105.273V40.0247H114.716H116.244L116.517 40.0795L119.191 41.5578H127.324V34.0566ZM128.415 36.1372H129.943V34.7136H133V40.6817H129.943V39.2582H128.415V42.6529H119.082L118.809 42.5981L116.953 41.5578L117.008 41.7221C117.226 42.2696 117.336 42.9266 117.336 43.5289C117.336 45.0073 116.735 46.3213 115.807 47.3069C114.825 48.2377 113.515 48.84 112.041 48.84C111.332 48.84 110.622 48.7305 110.022 48.4567C109.476 48.2377 108.985 47.9092 108.548 47.5259H93.2112C92.7746 47.9092 92.2834 48.2377 91.7922 48.4567C91.1372 48.7305 90.4277 48.84 89.7181 48.84C88.2991 48.84 86.9346 48.2377 86.0067 47.3069C85.0243 46.3213 84.4239 45.0073 84.4239 43.5289C84.4239 42.9266 84.5331 42.3243 84.7514 41.7768C84.8059 41.5578 84.9151 41.3388 85.0243 41.1198H82.5682V45.9928H50.7482V41.1198H48.8924C49.0562 41.3388 49.1653 41.6126 49.2199 41.8863C49.3837 42.4339 49.4928 42.9814 49.4928 43.5289C49.4928 45.0073 48.8924 46.3213 47.9646 47.3069C46.9821 48.2377 45.6722 48.84 44.1986 48.84C43.489 48.84 42.7795 48.7305 42.1245 48.4567C41.6333 48.2377 41.1421 47.9092 40.7055 47.5259H25.3685C24.9319 47.9092 24.4407 48.2377 23.8949 48.4567C23.2945 48.7305 22.585 48.84 21.8754 48.84C20.4018 48.84 19.0919 48.2377 18.1094 47.3069C17.1816 46.3213 16.5812 45.0073 16.5812 43.5289C16.5812 42.9814 16.6903 42.4339 16.8541 41.8863C16.9087 41.6126 17.0178 41.3935 17.127 41.1198L14.5072 42.5981L14.2343 42.6529H4.84651V39.2582H3.37286V40.6817H0.370972V34.7136H3.37286V36.1372H4.84651V13.4693L5.01026 13.1408L11.9965 5.03731L12.324 4.87305L28.2613 2.35439H30.2807V0H103.09V2.35439H105.11L120.992 4.87305L121.32 5.03731L128.306 13.1408L128.415 13.4693V36.1372ZM130.489 37.2323H128.47V38.1631H131.035V39.5867H131.908V35.8087H131.035V37.2323H130.489ZM28.8616 42.7624H35.7387V41.1198H28.8616V42.7624ZM36.2845 43.8574H27.77V41.1198H20.6747V44.7882H23.8949L24.9865 46.4309H41.415L42.5066 44.7882H45.7268V41.1198H36.8303V43.8574H36.2845ZM42.1791 47.2522C42.2883 47.3069 42.452 47.3617 42.5612 47.4164C43.0524 47.6354 43.6528 47.7449 44.1986 47.7449C45.3447 47.7449 46.3818 47.2521 47.1459 46.5404C47.91 45.7738 48.4012 44.6787 48.4012 43.5289C48.4012 43.0909 48.3466 42.6529 48.1829 42.2148C48.0737 41.8316 47.91 41.4483 47.6371 41.1198H46.8184V45.8833H43.0524L42.1791 47.2522ZM18.4369 41.1198C18.164 41.4483 18.0003 41.8316 17.8911 42.2148C17.7274 42.6529 17.6728 43.0909 17.6728 43.5289C17.6728 44.6787 18.164 45.7738 18.9281 46.5404C19.6922 47.2521 20.7293 47.7449 21.8754 47.7449C22.4212 47.7449 23.0216 47.6354 23.5128 47.4164C23.7311 47.3069 23.9495 47.1974 24.1132 47.0879L23.3491 45.8833H19.5831V41.1198H18.4369ZM97.3593 42.7624H104.182V41.1198H97.3593V42.7624ZM104.728 43.8574H96.2677V41.1198H88.5174V44.7882H91.7922L92.8838 46.4309H109.258L110.349 44.7882H113.624V41.1198H105.273V43.8574H104.728ZM23.0762 8.97955H12.8152L10.3045 12.21V12.5933H23.0762V8.97955ZM12.5423 7.88448H24.1678V13.6883H9.2129V11.991L9.32208 11.6625L12.2694 7.88448H12.5423ZM4.84651 37.2323H2.28127V35.8087H1.46257V39.5867H2.28127V38.1631H4.84651V37.2323ZM109.531 7.88448H120.938L123.831 11.6625L123.94 11.991V13.6883H108.985V7.88448H109.531ZM120.392 8.97955H110.076V12.5933H122.848V12.21L120.392 8.97955ZM51.8398 41.1198V44.8978H81.4766V41.1198H51.8398ZM86.2796 41.1198C86.0613 41.4483 85.8976 41.7768 85.7884 42.1053C85.6247 42.5434 85.5155 43.0361 85.5155 43.5289C85.5155 44.6787 86.0067 45.7738 86.7708 46.5404C87.535 47.2521 88.572 47.7449 89.7181 47.7449C90.3185 47.7449 90.8643 47.6354 91.3555 47.4164C91.5739 47.3069 91.7922 47.1974 92.0105 47.0879L91.1918 45.8833H87.4258V41.1198H86.2796Z" fill="#006525"/>
</svg>
