<svg width="22" height="22" viewBox="0 0 22 22" fill="none" xmlns="http://www.w3.org/2000/svg">
<g clip-path="url(#clip0_1001_4077)">
<path d="M13.1214 13.1214C11.3929 14.905 11.2671 17.1286 11.1179 22C15.6593 22 18.7943 21.9843 20.4129 20.4129C21.9843 18.7943 22 15.51 22 11.1179C17.1286 11.275 14.905 11.3929 13.1214 13.1214ZM0 11.1179C0 15.51 0.0157143 18.7943 1.58714 20.4129C3.20571 21.9843 6.34071 22 10.8821 22C10.725 17.1286 10.6071 14.905 8.87857 13.1214C7.095 11.3929 4.87143 11.2671 0 11.1179ZM10.8821 0C6.34857 0 3.20571 0.0157143 1.58714 1.58714C0.0157143 3.20571 0 6.49 0 10.8821C4.87143 10.725 7.095 10.6071 8.87857 8.87857C10.6071 7.095 10.7329 4.87143 10.8821 0ZM13.1214 8.87857C11.3929 7.095 11.2671 4.87143 11.1179 0C15.6593 0 18.7943 0.0157143 20.4129 1.58714C21.9843 3.20571 22 6.49 22 10.8821C17.1286 10.725 14.905 10.6071 13.1214 8.87857Z" fill="white"/>
</g>
<defs>
<clipPath id="clip0_1001_4077">
<rect width="22" height="22" fill="white"/>
</clipPath>
</defs>
</svg>
